<svg width="56" height="56" viewBox="0 0 56 56" fill="none" xmlns="http://www.w3.org/2000/svg">
<path d="M44 0.5H12C5.64873 0.5 0.5 5.64873 0.5 12V44C0.5 50.3513 5.64873 55.5 12 55.5H44C50.3513 55.5 55.5 50.3513 55.5 44V12C55.5 5.64873 50.3513 0.5 44 0.5Z" stroke="#EF5C26"/>
<path d="M31.1204 21.32H33.0003V18.14C32.0901 18.0454 31.1755 17.9986 30.2604 18C27.5404 18 25.6804 19.66 25.6804 22.7V25.32H22.6104V28.88H25.6804V38H29.3604V28.88H32.4204L32.8803 25.32H29.3604V23.05C29.3604 22 29.6404 21.32 31.1204 21.32Z" fill="white"/>
</svg>
