<svg width="43" height="68" viewBox="0 0 43 68" fill="none" xmlns="http://www.w3.org/2000/svg">
<path d="M25.9603 0.987025C24.8805 2.36836 23.9668 3.87934 23.2389 5.48704C21.9479 8.30561 21.3422 11.4061 21.4742 14.5204C21.6548 17.6367 22.5285 20.6683 24.0275 23.3804C25.7699 26.547 28.0213 29.3851 30.6855 31.7738C31.8536 32.9322 32.9021 34.2124 33.8141 35.5938C36.0342 38.6835 38.0285 41.9391 39.7804 45.3338C40.7617 47.2067 41.5151 49.1973 42.0234 51.2605C42.3489 52.5176 42.3238 53.8439 41.951 55.0869C41.5783 56.3299 40.8729 57.4392 39.9162 58.2872C38.5281 59.5859 36.8452 60.503 35.0229 60.9539C32.8611 61.5479 30.6268 61.8129 28.3908 61.7406C26.0856 61.6896 23.787 61.4668 21.513 61.0739C20.8153 60.9872 20.11 60.9872 19.4122 61.0739C18.7658 61.1472 18.559 61.6139 18.9145 62.2072C19.1428 62.6126 19.4407 62.9718 19.7936 63.2672C21.6358 64.6406 23.5169 65.9739 25.3785 67.3273C25.4982 67.3979 25.5983 67.4988 25.6694 67.6206C25.023 67.5472 24.3766 67.5006 23.7302 67.4273C21.6762 67.1936 19.6367 66.8397 17.6217 66.3672C14.5913 65.6918 11.6567 64.621 8.88875 63.1806C6.80742 62.152 4.94098 60.7139 3.39432 58.9472C2.32436 57.7592 1.51134 56.3503 1.00908 54.8139C0.777641 54.0384 0.761968 53.2114 0.963839 52.4272C1.04699 52.0423 1.21186 51.6813 1.44659 51.37C1.68132 51.0588 1.98006 50.8051 2.32128 50.6272C3.63082 49.9322 5.14265 49.759 6.56816 50.1405C7.58682 50.4271 8.57951 50.8041 9.53516 51.2672C12.5848 52.5797 15.7187 53.6734 18.9145 54.5405C20.5972 55.0368 22.3358 55.3035 24.0857 55.3339C24.9049 55.3065 25.7202 55.2061 26.5227 55.0339C27.3034 54.8886 28.0074 54.4584 28.5059 53.8218C29.0044 53.1853 29.2641 52.385 29.2376 51.5672C29.2126 50.1542 28.9298 48.7588 28.4037 47.4538C27.6212 45.4882 26.5957 43.6351 25.3527 41.9405C24.4671 40.6072 23.3682 39.5272 22.3663 38.3005C19.6772 35.1258 17.4437 31.5695 15.7342 27.7404C14.8419 25.7281 14.293 23.572 14.1117 21.3671C14.018 19.4597 14.2521 17.5503 14.8033 15.7271C15.7583 12.4248 17.3845 9.37028 19.5738 6.76704C21.4007 4.57536 23.4754 2.61699 25.7534 0.933691C25.7534 0.933691 25.831 0.933691 25.8504 0.887024C25.915 0.960358 25.9344 0.987025 25.9603 0.987025Z" fill="#EF5C26"/>
<path d="M14.0596 10.7337C13.6523 11.4004 13.1998 12.1137 12.8185 12.8271C11.3318 15.4359 10.2971 18.292 9.76097 21.2671C9.25621 23.8555 9.36335 26.5312 10.0733 29.0679C10.7833 31.6046 12.0752 33.9276 13.8398 35.8405C14.7941 36.914 15.8509 37.8856 16.9942 38.7405C18.3862 39.8716 19.6426 41.1696 20.7369 42.6072C21.7273 43.7646 22.5187 45.0881 23.0769 46.5205C23.2719 47.079 23.4169 47.6547 23.51 48.2405C23.593 48.8701 23.4892 49.5109 23.2122 50.0785C22.9353 50.6461 22.4983 51.114 21.9586 51.4205C21.3264 51.8703 20.5935 52.1468 19.829 52.2237C19.0645 52.3007 18.2936 52.1757 17.5889 51.8605C16.4816 51.3949 15.4703 50.7161 14.609 49.8605C12.5426 47.8135 10.7454 45.496 9.26323 42.9671C7.98332 40.8926 6.97891 38.6504 6.27685 36.3005C5.71596 34.523 5.48139 32.6533 5.58519 30.7871C5.7684 28.3648 6.21729 25.9718 6.92325 23.6538C8.40419 18.9006 10.7884 14.4994 13.9367 10.7071L14.0078 10.6337C14.0169 10.6709 14.0346 10.7053 14.0596 10.7337Z" fill="#F4941F"/>
<path d="M5.12666 30.6664C5.08141 30.7598 5.0297 30.8331 4.98446 30.9331C4.15087 32.3446 3.61356 33.9208 3.40724 35.5598C3.27008 36.5783 3.34624 37.6153 3.63058 38.6008C3.91492 39.5864 4.40084 40.4977 5.05556 41.2731C5.62759 41.9067 6.24094 42.4992 6.89134 43.0465C8.08718 44.1532 9.18606 45.3065 9.68379 46.9332C9.79141 47.203 9.81246 47.5014 9.74384 47.7845C9.67521 48.0676 9.52052 48.3206 9.30241 48.5065C9.04807 48.7993 8.71217 49.0039 8.34072 49.0922C7.96928 49.1805 7.58044 49.1483 7.22746 48.9998C6.7092 48.8077 6.23101 48.5159 5.81831 48.1398C3.86982 46.3147 2.46804 43.953 1.7783 41.3331C1.47277 39.9406 1.51503 38.4909 1.90112 37.1198C2.43831 34.7858 3.46423 32.6014 4.90688 30.7198C4.95213 30.6731 5.00384 30.5998 5.04909 30.5464C5.08141 30.6198 5.1008 30.6664 5.12666 30.6664Z" fill="#208703"/>
</svg>
