<svg width="28" height="24" viewBox="0 0 28 24" fill="none" xmlns="http://www.w3.org/2000/svg">
<path d="M2.33317 3.66658H25.6665C26.587 3.66658 27.3332 2.92039 27.3332 1.99992C27.3332 1.07944 26.587 0.333252 25.6665 0.333252H2.33317C1.4127 0.333252 0.666504 1.07944 0.666504 1.99992C0.666504 2.92039 1.4127 3.66658 2.33317 3.66658Z" fill="#000814"/>
<path d="M25.6665 13.6666H2.33317C1.4127 13.6666 0.666504 12.9204 0.666504 11.9999C0.666504 11.0794 1.4127 10.3333 2.33317 10.3333H25.6665C26.587 10.3333 27.3332 11.0794 27.3332 11.9999C27.3332 12.9204 26.587 13.6666 25.6665 13.6666Z" fill="#000814"/>
<path d="M25.6665 23.6666H2.33317C1.4127 23.6666 0.666504 22.9204 0.666504 21.9999C0.666504 21.0794 1.4127 20.3333 2.33317 20.3333H25.6665C26.587 20.3333 27.3332 21.0794 27.3332 21.9999C27.3332 22.9204 26.587 23.6666 25.6665 23.6666Z" fill="#000814"/>
</svg>
