<svg width="56" height="56" viewBox="0 0 56 56" fill="none" xmlns="http://www.w3.org/2000/svg">
<path d="M44 0.5H12C5.64873 0.5 0.5 5.64873 0.5 12V44C0.5 50.3513 5.64873 55.5 12 55.5H44C50.3513 55.5 55.5 50.3513 55.5 44V12C55.5 5.64873 50.3513 0.5 44 0.5Z" stroke="#EF5C26"/>
<path d="M34.7266 16.9141H21.2734C18.775 16.9141 16.75 18.9391 16.75 21.4375V34.5625C16.75 37.0609 18.775 39.0859 21.2734 39.0859H34.7266C37.225 39.0859 39.25 37.0609 39.25 34.5625V21.4375C39.25 18.9391 37.225 16.9141 34.7266 16.9141ZM28 33.2969C25.075 33.2969 22.7031 30.925 22.7031 28C22.7031 25.075 25.075 22.7031 28 22.7031C30.925 22.7031 33.2969 25.075 33.2969 28C33.2969 30.925 30.925 33.2969 28 33.2969ZM34.8297 22.5672C34.2063 22.5672 33.7 22.0609 33.7 21.4375C33.7 20.8141 34.2063 20.3078 34.8297 20.3078C35.4531 20.3078 35.9594 20.8141 35.9594 21.4375C35.9594 22.0609 35.4531 22.5672 34.8297 22.5672Z" fill="white"/>
</svg>
