<svg width="275" height="648" viewBox="0 0 275 648" fill="none" xmlns="http://www.w3.org/2000/svg">
<g clip-path="url(#clip0_30_22)">
<path d="M521.722 626.386C515.627 600.487 505.268 576.402 493.079 552.938C471.134 510.585 444.925 470.961 416.886 432.252C404.696 415.487 392.507 399.033 376.967 385.013C343.127 354.85 313.879 320.716 292 281.091C273.111 246.957 261.526 210.699 259.32 171.369C257.49 132.366 265.415 95.1927 281.886 59.5228C291.152 39.5888 302.818 20.8609 316.624 3.7548C316.314 3.7548 316.003 3.46069 315.399 2.54565C315.105 2.83977 314.484 2.83977 314.19 3.15023C285.235 24.1633 258.373 47.9541 235.252 75.3724C207.474 108.297 186.232 144.866 174.304 186.304C167.588 209.18 163.928 232.333 165.464 256.108C167.294 283.526 175.268 309.735 186.183 335.029C207.212 383.493 237.376 425.552 270.905 465.748C283.699 480.977 297.719 494.392 308.994 510.846C323.928 532.48 338.863 554.131 348.013 579.114C354.108 595.569 358.977 612.333 358.683 630.013C358.062 652.252 345.268 668.722 323.928 672.987C313.704 675.097 303.317 676.322 292.882 676.647C270.333 676.941 248.389 672.366 226.755 666.843C185.905 656.484 145.987 642.154 106.984 626.304C94.4837 621.402 82.2942 615.029 68.8792 612.284C50.2844 608.33 32.0001 608.935 14.6308 618.379C10.268 620.57 6.44651 623.704 3.44264 627.553C0.438769 631.401 -1.67244 635.869 -2.73847 640.634C-5.28008 650.352 -5.07078 660.586 -2.1339 670.193C3.96087 689.703 14.9413 706.14 28.3563 721.386C47.8498 743.951 72.2288 760.405 98.438 773.804C133.797 792.088 171.592 803.984 210.284 812.823C236.019 818.679 262.07 823.043 288.307 825.895C296.477 826.81 304.761 827.415 312.997 828.33C312.104 826.822 310.845 825.563 309.337 824.67C285.562 807.905 261.494 791.451 238.029 774.392C233.49 770.775 229.667 766.341 226.755 761.32C222.18 754 224.614 748.248 233.144 747.301C242.067 746.336 251.074 746.435 259.974 747.595C288.912 752.17 318.177 755.765 347.735 756.14C376.379 756.435 404.729 754.31 432.458 746.337C455.922 739.931 477.262 729.882 494.941 713.118C519.892 689.474 529.958 660.83 521.722 626.386Z" stroke="#ECECEC" stroke-width="2" stroke-miterlimit="10"/>
<path d="M103.454 523.689C122.947 554.735 144.892 584.033 171.722 609.016C182.996 619.376 195.48 628.216 209.81 633.706C229.32 641.01 247.898 640.095 265.578 628.216C279.598 618.771 287.833 606.271 285.398 588.902C284.212 581.638 282.374 574.496 279.908 567.562C273.209 549.588 262.228 533.738 250.039 519.114C235.415 501.745 220.48 484.67 202.196 471.271C187.599 460.687 174.12 448.642 161.967 435.323C115.022 383.82 97.9637 323.477 109.843 254.899C116.248 217.725 130.268 183.003 148.862 150.323C153.764 141.484 159.532 132.938 164.712 124.408C164.438 124.155 164.225 123.842 164.091 123.493L163.176 124.408C122.947 171.957 92.4735 225.291 73.5846 284.719C64.5679 313.439 58.8395 343.089 56.5094 373.101C54.6793 396.255 58.6499 419.114 65.3493 441.369C74.3426 470.378 87.1566 498.061 103.454 523.689Z" stroke="#ECECEC" stroke-width="2" stroke-miterlimit="10"/>
<path d="M59.4019 587.382C64.3039 592.284 70.9869 595.307 77.3758 598.052C87.1797 602.317 96.281 598.951 103.895 591.941C109.99 586.467 111.216 579.752 108.797 572.448C102.408 552.333 88.3889 538.003 73.1438 524.294C65.2189 517.284 56.6895 510.585 49.6797 502.35C32.3104 481.925 25.6111 458.232 28.6503 431.647C31.0849 410.928 38.4542 392.023 48.7647 374.343C49.3692 373.134 49.9901 372.219 50.5947 370.993C50.2843 370.993 49.9901 370.699 49.3692 370.078C48.7647 370.699 48.1601 371.598 47.5555 372.219C29.2549 395.993 15.8562 422.203 9.14049 451.451C5.18624 468.82 2.75161 485.895 7.62089 503.575C16.4281 536.794 34.7124 564.212 59.4019 587.382Z" stroke="#ECECEC" stroke-width="2" stroke-miterlimit="10"/>
</g>
<defs>
<clipPath id="clip0_30_22">
<rect width="526" height="830" fill="white"/>
</clipPath>
</defs>
</svg>
