<svg width="272" height="280" viewBox="0 0 272 280" fill="none" xmlns="http://www.w3.org/2000/svg">
<path d="M148.121 80.4848C146.861 82.0964 145.795 83.8592 144.946 85.7348C143.439 89.0232 142.733 92.6405 142.887 96.2738C143.098 99.9094 144.117 103.446 145.866 106.61C147.898 110.305 150.525 113.616 153.633 116.403C154.996 117.754 156.219 119.248 157.283 120.859C159.873 124.464 162.2 128.262 164.244 132.223C165.389 134.408 166.268 136.73 166.861 139.137C167.241 140.604 167.211 142.151 166.776 143.601C166.342 145.052 165.519 146.346 164.402 147.335C162.783 148.85 160.82 149.92 158.694 150.446C156.172 151.139 153.565 151.448 150.956 151.364C148.267 151.304 145.585 151.045 142.932 150.586C142.118 150.485 141.295 150.485 140.481 150.586C139.727 150.672 139.486 151.216 139.9 151.908C140.167 152.381 140.514 152.8 140.926 153.145C143.075 154.747 145.27 156.303 147.442 157.882C147.581 157.964 147.698 158.082 147.781 158.224C147.027 158.138 146.273 158.084 145.519 157.998C143.122 157.726 140.743 157.313 138.392 156.762C134.857 155.974 131.433 154.724 128.204 153.044C125.776 151.844 123.598 150.166 121.794 148.105C120.545 146.719 119.597 145.075 119.011 143.283C118.741 142.378 118.723 141.413 118.958 140.498C119.055 140.049 119.247 139.628 119.521 139.265C119.795 138.902 120.144 138.606 120.542 138.398C122.07 137.588 123.833 137.385 125.496 137.831C126.685 138.165 127.843 138.605 128.958 139.145C132.516 140.676 136.172 141.952 139.9 142.964C141.864 143.543 143.892 143.854 145.934 143.889C146.889 143.858 147.841 143.74 148.777 143.539C149.688 143.37 150.509 142.868 151.09 142.125C151.672 141.383 151.975 140.449 151.944 139.495C151.915 137.847 151.585 136.219 150.971 134.696C150.058 132.403 148.862 130.241 147.412 128.264C146.379 126.708 145.097 125.448 143.928 124.017C140.79 120.313 138.185 116.164 136.19 111.697C135.149 109.349 134.509 106.834 134.297 104.262C134.188 102.036 134.461 99.8087 135.104 97.6816C136.218 93.8289 138.116 90.2653 140.67 87.2282C142.801 84.6712 145.221 82.3865 147.879 80.4226C147.879 80.4226 147.97 80.4226 147.992 80.3682C148.068 80.4537 148.09 80.4848 148.121 80.4848Z" fill="#EF5C26"/>
<path d="M134.236 91.8559C133.761 92.6337 133.233 93.4659 132.788 94.2982C131.054 97.3418 129.846 100.674 129.221 104.145C128.632 107.165 128.757 110.286 129.585 113.246C130.414 116.205 131.921 118.915 133.98 121.147C135.093 122.4 136.326 123.533 137.66 124.53C139.284 125.85 140.749 127.364 142.026 129.042C143.182 130.392 144.105 131.936 144.756 133.607C144.984 134.259 145.153 134.93 145.261 135.614C145.358 136.348 145.237 137.096 144.914 137.758C144.591 138.42 144.081 138.966 143.452 139.324C142.714 139.849 141.859 140.171 140.967 140.261C140.075 140.351 139.176 140.205 138.354 139.837C137.062 139.294 135.882 138.502 134.877 137.504C132.466 135.116 130.369 132.412 128.64 129.462C127.147 127.041 125.975 124.425 125.156 121.684C124.502 119.61 124.228 117.429 124.349 115.252C124.563 112.426 125.087 109.634 125.91 106.929C127.638 101.384 130.42 96.2492 134.093 91.8248L134.176 91.7393C134.186 91.7827 134.207 91.8227 134.236 91.8559Z" fill="#F4941F"/>
<path d="M123.815 115.111C123.762 115.22 123.701 115.305 123.649 115.422C122.676 117.069 122.049 118.908 121.809 120.82C121.649 122.008 121.737 123.218 122.069 124.368C122.401 125.518 122.968 126.581 123.732 127.485C124.399 128.225 125.115 128.916 125.873 129.554C127.268 130.845 128.55 132.191 129.131 134.089C129.257 134.404 129.281 134.752 129.201 135.082C129.121 135.412 128.941 135.707 128.686 135.924C128.389 136.266 127.998 136.505 127.564 136.608C127.131 136.711 126.677 136.673 126.265 136.5C125.661 136.276 125.103 135.935 124.621 135.497C122.348 133.367 120.713 130.612 119.908 127.555C119.552 125.931 119.601 124.239 120.051 122.64C120.678 119.917 121.875 117.368 123.558 115.173C123.611 115.119 123.671 115.033 123.724 114.971C123.762 115.057 123.784 115.111 123.815 115.111Z" fill="#208703"/>
<path d="M229.838 185.414H172.357V198.597H229.838V185.414Z" fill="white"/>
<path d="M62.3449 167.377H57.1338V165.433H69.8183V167.377H64.5846V183.104H62.3222L62.3449 167.377Z" fill="url(#paint0_linear_501_81)"/>
<path d="M71.4697 164.492H73.7321V172.41H73.7849C74.1637 171.727 74.7167 171.165 75.3836 170.784C76.0702 170.368 76.8498 170.143 77.6461 170.131C79.2976 170.131 81.9371 171.173 81.9371 175.575V183.127H79.6747V175.84C79.6747 173.794 78.9206 172.067 76.8241 172.067C76.1467 172.078 75.4898 172.309 74.9479 172.728C74.4059 173.147 74.0067 173.733 73.8075 174.401C73.6828 174.754 73.6289 175.13 73.6491 175.505V183.159H71.3867L71.4697 164.492Z" fill="url(#paint1_linear_501_81)"/>
<path d="M86.8164 177.178C86.8692 180.289 88.7998 181.58 91.032 181.58C92.2006 181.618 93.3634 181.395 94.4407 180.926L94.8253 182.575C93.528 183.127 92.133 183.392 90.7304 183.353C86.9597 183.353 84.6973 180.786 84.6973 176.96C84.6973 173.133 86.8843 170.123 90.4664 170.123C94.4784 170.123 95.5493 173.763 95.5493 176.096C95.5444 176.455 95.5192 176.814 95.4739 177.17L86.8164 177.178ZM93.3698 175.529C93.3698 174.059 92.7891 171.78 90.2703 171.78C88.0079 171.78 87.02 173.926 86.839 175.529H93.3698Z" fill="url(#paint2_linear_501_81)"/>
<path d="M116.8 182.311C115.107 182.943 113.322 183.272 111.521 183.283C110.351 183.4 109.17 183.252 108.062 182.848C106.953 182.444 105.945 181.794 105.106 180.944C104.268 180.094 103.62 179.065 103.209 177.929C102.798 176.793 102.634 175.578 102.728 174.369C102.728 169.104 106.257 165.254 112.004 165.254C113.463 165.209 114.916 165.474 116.272 166.032L115.737 167.898C114.55 167.357 113.263 167.092 111.966 167.121C107.796 167.121 105.081 169.796 105.081 174.222C105.081 178.647 107.698 181.346 111.687 181.346C112.691 181.404 113.695 181.245 114.636 180.879V175.614H111.159V173.778H116.8V182.311Z" fill="url(#paint3_linear_501_81)"/>
<path d="M127.117 183.104L126.944 181.502H126.861C126.424 182.104 125.854 182.59 125.198 182.918C124.542 183.247 123.819 183.41 123.09 183.392C122.605 183.43 122.118 183.363 121.66 183.197C121.201 183.03 120.782 182.767 120.427 182.424C120.072 182.081 119.791 181.665 119.6 181.204C119.41 180.743 119.314 180.246 119.32 179.744C119.32 176.68 121.959 175 126.718 175.031V174.767C126.718 173.717 126.431 171.834 123.92 171.834C122.788 171.838 121.679 172.163 120.715 172.775L120.209 171.22C121.43 170.468 122.83 170.08 124.252 170.1C128.022 170.1 128.927 172.744 128.927 175.288V180.032C128.908 181.05 128.977 182.068 129.131 183.073L127.117 183.104ZM126.786 176.625C124.35 176.579 121.582 177.022 121.582 179.488C121.559 179.779 121.597 180.073 121.693 180.348C121.79 180.624 121.943 180.874 122.142 181.083C122.341 181.292 122.581 181.454 122.846 181.559C123.111 181.663 123.395 181.708 123.678 181.689C124.33 181.713 124.971 181.52 125.507 181.137C126.042 180.754 126.443 180.203 126.65 179.565C126.737 179.316 126.78 179.053 126.778 178.788L126.786 176.625Z" fill="url(#paint4_linear_501_81)"/>
<path d="M132.253 180.741C133.137 181.316 134.156 181.633 135.201 181.658C136.823 181.658 137.584 180.818 137.584 179.776C137.584 178.734 136.951 178.073 135.322 177.443C133.112 176.665 132.072 175.374 132.072 173.85C132.072 171.804 133.67 170.132 136.31 170.132C137.364 170.119 138.403 170.387 139.326 170.91L138.761 172.59C138.005 172.112 137.136 171.859 136.25 171.858C134.93 171.858 134.191 172.636 134.191 173.585C134.191 174.534 134.945 175.141 136.529 175.74C138.663 176.58 139.756 177.676 139.756 179.566C139.756 181.791 138.075 183.362 135.156 183.362C133.952 183.385 132.763 183.087 131.702 182.498L132.253 180.741Z" fill="url(#paint5_linear_501_81)"/>
<path d="M145.315 166.771V170.419H148.512V172.169H145.315V179.013C145.315 180.569 145.745 181.479 146.989 181.479C147.426 181.484 147.863 181.429 148.286 181.315L148.384 183.05C147.749 183.276 147.08 183.381 146.408 183.361C145.961 183.389 145.512 183.316 145.095 183.148C144.677 182.98 144.299 182.721 143.987 182.389C143.354 181.712 143.128 180.584 143.128 179.091V172.169H141.22V170.419H143.128V167.378L145.315 166.771Z" fill="url(#paint6_linear_501_81)"/>
<path d="M151.031 174.371C151.031 172.878 151.031 171.594 150.926 170.42H152.887L152.962 172.909H153.09C153.3 172.133 153.744 171.447 154.356 170.948C154.969 170.449 155.719 170.163 156.499 170.132C156.712 170.128 156.926 170.154 157.132 170.21V172.38C156.884 172.327 156.631 172.301 156.378 172.302C154.802 172.302 153.686 173.539 153.362 175.265C153.303 175.62 153.27 175.979 153.264 176.339V183.105H151.054L151.031 174.371Z" fill="url(#paint7_linear_501_81)"/>
<path d="M170.216 176.657C170.216 181.324 167.064 183.393 164.093 183.393C160.759 183.393 158.195 180.873 158.195 176.867C158.195 172.62 160.888 170.132 164.296 170.132C167.826 170.132 170.216 172.776 170.216 176.657ZM160.458 176.782C160.458 179.566 161.966 181.658 164.191 181.658C166.415 181.658 167.924 179.589 167.924 176.735C167.924 174.58 166.883 171.858 164.243 171.858C161.604 171.858 160.458 174.37 160.458 176.782Z" fill="url(#paint8_linear_501_81)"/>
<path d="M184.764 164.492V179.269C184.764 180.708 184.809 182.225 184.862 183.096H181.445L181.272 181.206H181.219C180.819 181.895 180.247 182.461 179.562 182.844C178.878 183.227 178.106 183.413 177.328 183.384C174.379 183.384 172.049 180.786 172.049 176.804C172.049 172.479 174.643 169.991 177.614 169.991C178.234 169.933 178.858 170.034 179.43 170.285C180.002 170.536 180.506 170.929 180.895 171.429H180.94V164.484L184.764 164.492ZM180.895 175.707C180.895 175.497 180.895 175.209 180.85 174.999C180.752 174.453 180.472 173.958 180.06 173.601C179.647 173.243 179.126 173.045 178.587 173.039C176.83 173.039 175.918 174.665 175.918 176.679C175.918 178.857 176.958 180.218 178.557 180.218C179.093 180.227 179.614 180.04 180.028 179.69C180.443 179.339 180.723 178.849 180.819 178.305C180.892 178.005 180.925 177.696 180.917 177.387L180.895 175.707Z" fill="url(#paint9_linear_501_81)"/>
<path d="M190.85 177.963C190.978 179.612 192.554 180.397 194.356 180.397C195.52 180.413 196.678 180.237 197.788 179.876L198.293 182.575C196.846 183.128 195.311 183.392 193.768 183.353C189.545 183.353 187.132 180.84 187.132 176.827C187.132 173.576 189.093 169.99 193.414 169.99C197.426 169.99 198.949 173.21 198.949 176.384C198.949 176.905 198.907 177.426 198.821 177.939L190.85 177.963ZM195.375 175.24C195.375 174.268 194.967 172.643 193.188 172.643C191.566 172.643 190.925 174.159 190.797 175.24H195.375Z" fill="url(#paint10_linear_501_81)"/>
<path d="M201.294 174.503C201.294 172.621 201.241 171.392 201.188 170.287H204.522L204.65 172.621H204.748C204.972 171.875 205.415 171.219 206.016 170.745C206.618 170.272 207.347 170.003 208.104 169.976C208.377 169.964 208.65 169.983 208.918 170.031V173.772C208.572 173.707 208.222 173.673 207.87 173.67C207.268 173.617 206.667 173.792 206.181 174.163C205.695 174.534 205.357 175.075 205.231 175.685C205.177 175.98 205.152 176.279 205.155 176.579V183.082H201.294V174.503Z" fill="url(#paint11_linear_501_81)"/>
<path d="M210.947 174.37C210.947 172.775 210.894 171.414 210.849 170.286H214.099L214.272 172.013H214.355C214.761 171.369 215.322 170.845 215.983 170.492C216.644 170.139 217.382 169.969 218.126 169.999C218.84 169.961 219.549 170.149 220.158 170.537C220.767 170.924 221.247 171.493 221.535 172.169H221.588C222.012 171.543 222.556 171.014 223.186 170.613C223.901 170.182 224.719 169.964 225.547 169.983C227.937 169.983 229.74 171.71 229.74 175.536V183.089H225.969V176.089C225.969 174.23 225.388 173.156 224.144 173.156C223.744 173.163 223.355 173.301 223.036 173.55C222.716 173.799 222.481 174.146 222.364 174.541C222.264 174.873 222.213 175.219 222.213 175.568V183.065H218.443V175.879C218.443 174.253 217.885 173.156 216.663 173.156C216.255 173.174 215.862 173.322 215.539 173.579C215.216 173.837 214.979 174.192 214.861 174.595C214.749 174.914 214.698 175.252 214.71 175.591V183.065H210.939L210.947 174.37Z" fill="url(#paint12_linear_501_81)"/>
<path d="M187.39 190.421H186.597C186.55 190.193 186.468 189.992 186.351 189.82C186.236 189.647 186.095 189.502 185.929 189.385C185.765 189.266 185.583 189.176 185.383 189.117C185.182 189.057 184.974 189.027 184.756 189.027C184.36 189.027 184.001 189.127 183.679 189.328C183.36 189.528 183.105 189.823 182.915 190.213C182.728 190.603 182.634 191.081 182.634 191.648C182.634 192.215 182.728 192.693 182.915 193.083C183.105 193.473 183.36 193.768 183.679 193.968C184.001 194.169 184.36 194.269 184.756 194.269C184.974 194.269 185.182 194.239 185.383 194.179C185.583 194.12 185.765 194.031 185.929 193.914C186.095 193.795 186.236 193.649 186.351 193.476C186.468 193.301 186.55 193.101 186.597 192.875H187.39C187.33 193.21 187.221 193.509 187.064 193.773C186.906 194.037 186.71 194.262 186.476 194.448C186.241 194.631 185.978 194.77 185.686 194.866C185.396 194.962 185.086 195.01 184.756 195.01C184.198 195.01 183.702 194.874 183.267 194.601C182.832 194.328 182.49 193.941 182.241 193.438C181.992 192.935 181.867 192.338 181.867 191.648C181.867 190.958 181.992 190.361 182.241 189.858C182.49 189.355 182.832 188.968 183.267 188.695C183.702 188.422 184.198 188.286 184.756 188.286C185.086 188.286 185.396 188.334 185.686 188.43C185.978 188.525 186.241 188.666 186.476 188.851C186.71 189.035 186.906 189.258 187.064 189.523C187.221 189.785 187.33 190.084 187.39 190.421ZM189.323 188.375V194.921H188.568V188.375H189.323ZM190.704 194.921V190.012H191.458V194.921H190.704ZM191.088 189.193C190.941 189.193 190.814 189.143 190.707 189.043C190.603 188.943 190.551 188.823 190.551 188.682C190.551 188.541 190.603 188.421 190.707 188.321C190.814 188.221 190.941 188.171 191.088 188.171C191.235 188.171 191.36 188.221 191.465 188.321C191.571 188.421 191.624 188.541 191.624 188.682C191.624 188.823 191.571 188.943 191.465 189.043C191.36 189.143 191.235 189.193 191.088 189.193ZM193.594 191.968V194.921H192.84V190.012H193.568V190.779H193.632C193.747 190.529 193.922 190.329 194.157 190.178C194.391 190.024 194.693 189.948 195.064 189.948C195.397 189.948 195.687 190.016 195.937 190.152C196.186 190.286 196.38 190.491 196.518 190.766C196.657 191.039 196.726 191.384 196.726 191.801V194.921H195.972V191.852C195.972 191.467 195.872 191.166 195.671 190.951C195.471 190.734 195.196 190.625 194.847 190.625C194.606 190.625 194.391 190.677 194.201 190.782C194.014 190.886 193.866 191.039 193.757 191.239C193.648 191.439 193.594 191.682 193.594 191.968ZM198.104 194.921V190.012H198.859V194.921H198.104ZM198.488 189.193C198.341 189.193 198.214 189.143 198.108 189.043C198.003 188.943 197.951 188.823 197.951 188.682C197.951 188.541 198.003 188.421 198.108 188.321C198.214 188.221 198.341 188.171 198.488 188.171C198.635 188.171 198.761 188.221 198.865 188.321C198.972 188.421 199.025 188.541 199.025 188.682C199.025 188.823 198.972 188.943 198.865 189.043C198.761 189.143 198.635 189.193 198.488 189.193ZM202.234 195.023C201.774 195.023 201.378 194.914 201.046 194.697C200.713 194.48 200.457 194.18 200.278 193.799C200.1 193.417 200.01 192.982 200.01 192.492C200.01 191.993 200.102 191.553 200.285 191.172C200.47 190.788 200.728 190.489 201.058 190.274C201.391 190.056 201.778 189.948 202.222 189.948C202.567 189.948 202.878 190.012 203.155 190.139C203.432 190.267 203.659 190.446 203.836 190.676C204.013 190.906 204.122 191.175 204.165 191.482H203.411C203.353 191.258 203.225 191.06 203.027 190.887C202.831 190.713 202.567 190.625 202.234 190.625C201.94 190.625 201.683 190.702 201.461 190.855C201.242 191.007 201.07 191.221 200.946 191.498C200.825 191.773 200.764 192.095 200.764 192.466C200.764 192.845 200.824 193.176 200.943 193.457C201.065 193.738 201.235 193.957 201.455 194.112C201.676 194.268 201.936 194.345 202.234 194.345C202.43 194.345 202.608 194.311 202.768 194.243C202.928 194.175 203.063 194.077 203.174 193.949C203.285 193.821 203.364 193.668 203.411 193.489H204.165C204.122 193.779 204.017 194.04 203.848 194.272C203.682 194.502 203.462 194.685 203.187 194.822C202.914 194.956 202.597 195.023 202.234 195.023Z" fill="#161616"/>
<path d="M60.8213 192.197H172.675" stroke="white" stroke-miterlimit="10"/>
<defs>
<linearGradient id="paint0_linear_501_81" x1="61.5983" y1="173.825" x2="207.438" y2="187.484" gradientUnits="userSpaceOnUse">
<stop stop-color="#EF5C26"/>
<stop offset="0.49" stop-color="#F27922"/>
<stop offset="1" stop-color="#F4941F"/>
</linearGradient>
<linearGradient id="paint1_linear_501_81" x1="61.696" y1="172.713" x2="207.544" y2="186.372" gradientUnits="userSpaceOnUse">
<stop stop-color="#EF5C26"/>
<stop offset="0.49" stop-color="#F27922"/>
<stop offset="1" stop-color="#F4941F"/>
</linearGradient>
<linearGradient id="paint2_linear_501_81" x1="61.5905" y1="173.864" x2="207.438" y2="187.523" gradientUnits="userSpaceOnUse">
<stop stop-color="#EF5C26"/>
<stop offset="0.49" stop-color="#F27922"/>
<stop offset="1" stop-color="#F4941F"/>
</linearGradient>
<linearGradient id="paint3_linear_501_81" x1="62.0194" y1="169.314" x2="207.86" y2="182.973" gradientUnits="userSpaceOnUse">
<stop stop-color="#EF5C26"/>
<stop offset="0.49" stop-color="#F27922"/>
<stop offset="1" stop-color="#F4941F"/>
</linearGradient>
<linearGradient id="paint4_linear_501_81" x1="61.8994" y1="170.598" x2="207.748" y2="184.257" gradientUnits="userSpaceOnUse">
<stop stop-color="#EF5C26"/>
<stop offset="0.49" stop-color="#F27922"/>
<stop offset="1" stop-color="#F4941F"/>
</linearGradient>
<linearGradient id="paint5_linear_501_81" x1="62.0047" y1="169.408" x2="207.853" y2="183.068" gradientUnits="userSpaceOnUse">
<stop stop-color="#EF5C26"/>
<stop offset="0.49" stop-color="#F27922"/>
<stop offset="1" stop-color="#F4941F"/>
</linearGradient>
<linearGradient id="paint6_linear_501_81" x1="62.2541" y1="166.748" x2="208.102" y2="180.407" gradientUnits="userSpaceOnUse">
<stop stop-color="#EF5C26"/>
<stop offset="0.49" stop-color="#F27922"/>
<stop offset="1" stop-color="#F4941F"/>
</linearGradient>
<linearGradient id="paint7_linear_501_81" x1="62.1866" y1="167.488" x2="208.034" y2="181.147" gradientUnits="userSpaceOnUse">
<stop stop-color="#EF5C26"/>
<stop offset="0.49" stop-color="#F27922"/>
<stop offset="1" stop-color="#F4941F"/>
</linearGradient>
<linearGradient id="paint8_linear_501_81" x1="62.2688" y1="166.608" x2="208.117" y2="180.268" gradientUnits="userSpaceOnUse">
<stop stop-color="#EF5C26"/>
<stop offset="0.49" stop-color="#F27922"/>
<stop offset="1" stop-color="#F4941F"/>
</linearGradient>
<linearGradient id="paint9_linear_501_81" x1="62.684" y1="162.158" x2="208.532" y2="175.818" gradientUnits="userSpaceOnUse">
<stop stop-color="#EF5C26"/>
<stop offset="0.49" stop-color="#F27922"/>
<stop offset="1" stop-color="#F4941F"/>
</linearGradient>
<linearGradient id="paint10_linear_501_81" x1="62.5485" y1="163.628" x2="208.396" y2="177.288" gradientUnits="userSpaceOnUse">
<stop stop-color="#EF5C26"/>
<stop offset="0.49" stop-color="#F27922"/>
<stop offset="1" stop-color="#F4941F"/>
</linearGradient>
<linearGradient id="paint11_linear_501_81" x1="62.6688" y1="162.377" x2="208.516" y2="176.036" gradientUnits="userSpaceOnUse">
<stop stop-color="#EF5C26"/>
<stop offset="0.49" stop-color="#F27922"/>
<stop offset="1" stop-color="#F4941F"/>
</linearGradient>
<linearGradient id="paint12_linear_501_81" x1="62.7892" y1="161.054" x2="208.637" y2="174.714" gradientUnits="userSpaceOnUse">
<stop stop-color="#EF5C26"/>
<stop offset="0.49" stop-color="#F27922"/>
<stop offset="1" stop-color="#F4941F"/>
</linearGradient>
</defs>
</svg>
