<svg width="311" height="48" viewBox="0 0 311 48" fill="none" xmlns="http://www.w3.org/2000/svg">
<rect width="311" height="48" rx="10" fill="url(#paint0_linear_829_174)"/>
<path d="M250.622 10.042C250.166 10.6215 249.78 11.2555 249.472 11.9301C248.927 13.1127 248.671 14.4136 248.726 15.7203C248.803 17.0278 249.172 18.2998 249.805 19.4378C250.542 20.7664 251.493 21.9572 252.619 22.9594C253.112 23.4455 253.555 23.9826 253.941 24.5622C254.879 25.8586 255.722 27.2246 256.462 28.649C256.877 29.4348 257.195 30.27 257.41 31.1357C257.547 31.6631 257.537 32.2196 257.379 32.7411C257.222 33.2627 256.924 33.7281 256.519 34.0839C255.933 34.6288 255.222 35.0136 254.452 35.2028C253.538 35.452 252.594 35.5632 251.649 35.5329C250.675 35.5115 249.704 35.418 248.743 35.2531C248.448 35.2168 248.15 35.2168 247.855 35.2531C247.582 35.2839 247.494 35.4797 247.645 35.7287C247.741 35.8988 247.867 36.0495 248.016 36.1734C248.795 36.7497 249.59 37.3091 250.376 37.8769C250.427 37.9065 250.469 37.9489 250.499 38C250.226 37.9692 249.953 37.9497 249.68 37.9189C248.812 37.8209 247.95 37.6724 247.098 37.4741C245.818 37.1907 244.578 36.7414 243.408 36.1371C242.529 35.7055 241.74 35.1021 241.086 34.3608C240.634 33.8624 240.291 33.2712 240.079 32.6266C239.981 32.3012 239.974 31.9542 240.059 31.6252C240.095 31.4637 240.164 31.3122 240.263 31.1816C240.363 31.051 240.489 30.9446 240.633 30.8699C241.186 30.5783 241.825 30.5057 242.428 30.6657C242.858 30.786 243.278 30.9442 243.681 31.1385C244.97 31.6891 246.294 32.148 247.645 32.5119C248.356 32.7201 249.09 32.832 249.83 32.8448C250.176 32.8333 250.521 32.7912 250.86 32.7189C251.19 32.6579 251.487 32.4774 251.698 32.2103C251.908 31.9433 252.018 31.6075 252.007 31.2643C251.996 30.6715 251.877 30.086 251.654 29.5385C251.324 28.7137 250.89 27.9362 250.365 27.2252C249.991 26.6657 249.527 26.2126 249.103 25.6979C247.967 24.3659 247.023 22.8737 246.301 21.2671C245.924 20.4228 245.692 19.5181 245.615 18.593C245.576 17.7927 245.675 16.9916 245.907 16.2266C246.311 14.841 246.998 13.5594 247.923 12.4671C248.695 11.5475 249.572 10.7259 250.535 10.0196C250.535 10.0196 250.567 10.0196 250.576 10C250.603 10.0308 250.611 10.042 250.622 10.042Z" fill="white"/>
<path d="M245.593 14.1325C245.421 14.4123 245.23 14.7116 245.069 15.0109C244.44 16.1055 244.003 17.3038 243.777 18.5521C243.563 19.6382 243.609 20.7608 243.909 21.8252C244.209 22.8895 244.754 23.8642 245.5 24.6668C245.903 25.1172 246.35 25.5249 246.833 25.8836C247.421 26.3582 247.952 26.9028 248.415 27.506C248.833 27.9916 249.168 28.5469 249.403 29.1479C249.486 29.3823 249.547 29.6238 249.586 29.8696C249.621 30.1338 249.578 30.4026 249.461 30.6408C249.344 30.8789 249.159 31.0753 248.931 31.2039C248.664 31.3926 248.354 31.5086 248.031 31.5409C247.708 31.5732 247.382 31.5207 247.084 31.3885C246.616 31.1931 246.189 30.9083 245.825 30.5493C244.952 29.6905 244.193 28.7181 243.566 27.657C243.025 26.7866 242.601 25.8458 242.304 24.8598C242.067 24.114 241.968 23.3295 242.012 22.5465C242.089 21.5302 242.279 20.5261 242.577 19.5535C243.203 17.5592 244.211 15.7125 245.541 14.1213L245.571 14.0906C245.575 14.1062 245.582 14.1206 245.593 14.1325Z" fill="white"/>
<path d="M241.818 22.4952C241.799 22.5343 241.777 22.5651 241.758 22.6071C241.406 23.1993 241.179 23.8606 241.092 24.5483C241.034 24.9757 241.066 25.4108 241.186 25.8243C241.306 26.2378 241.512 26.6201 241.788 26.9455C242.03 27.2114 242.289 27.46 242.564 27.6896C243.069 28.1539 243.534 28.6378 243.744 29.3203C243.79 29.4336 243.799 29.5588 243.77 29.6775C243.741 29.7963 243.675 29.9025 243.583 29.9805C243.476 30.1033 243.334 30.1892 243.177 30.2262C243.02 30.2633 242.855 30.2498 242.706 30.1875C242.487 30.1069 242.285 29.9844 242.111 29.8266C241.287 29.0609 240.695 28.0699 240.404 26.9707C240.274 26.3864 240.292 25.7781 240.455 25.2029C240.682 24.2236 241.116 23.307 241.726 22.5175C241.745 22.498 241.767 22.4672 241.786 22.4448C241.799 22.4756 241.808 22.4952 241.818 22.4952Z" fill="white"/>
<path d="M60.2578 23.6455C60.9475 23.7687 61.5325 24.132 62.0129 24.7355C62.4932 25.339 62.7333 26.0225 62.7333 26.7861C62.7333 27.4388 62.5609 28.03 62.2161 28.5596C61.8835 29.0769 61.3971 29.4895 60.7566 29.7973C60.1162 30.0929 59.3711 30.2407 58.5213 30.2407H53.3855V17.4014H58.2811C59.1556 17.4014 59.9068 17.5491 60.5349 17.8447C61.1631 18.1403 61.6372 18.5406 61.9574 19.0455C62.2776 19.5382 62.4378 20.0924 62.4378 20.7082C62.4378 21.4471 62.2407 22.0629 61.8466 22.5556C61.4525 23.0482 60.9229 23.4115 60.2578 23.6455ZM55.4916 22.7957H58.0964C58.7861 22.7957 59.3218 22.6418 59.7036 22.3339C60.0977 22.0137 60.2948 21.558 60.2948 20.9668C60.2948 20.388 60.0977 19.9384 59.7036 19.6182C59.3218 19.2857 58.7861 19.1194 58.0964 19.1194H55.4916V22.7957ZM58.3366 28.5226C59.0509 28.5226 59.6112 28.3502 60.0177 28.0054C60.4241 27.6605 60.6273 27.1802 60.6273 26.5644C60.6273 25.9363 60.4118 25.4375 59.9807 25.068C59.5497 24.6986 58.977 24.5138 58.2627 24.5138H55.4916V28.5226H58.3366ZM69.4372 30.407C68.4766 30.407 67.6083 30.1915 66.8324 29.7604C66.0565 29.317 65.4468 28.7012 65.0035 27.913C64.5601 27.1125 64.3384 26.1888 64.3384 25.1419C64.3384 24.1074 64.5662 23.1898 65.0219 22.3893C65.4776 21.5888 66.0996 20.973 66.8878 20.5419C67.676 20.1109 68.5566 19.8953 69.5296 19.8953C70.5025 19.8953 71.3831 20.1109 72.1713 20.5419C72.9596 20.973 73.5815 21.5888 74.0372 22.3893C74.4929 23.1898 74.7207 24.1074 74.7207 25.1419C74.7207 26.1765 74.4867 27.094 74.0187 27.8945C73.5507 28.6951 72.9103 29.317 72.0974 29.7604C71.2969 30.1915 70.4102 30.407 69.4372 30.407ZM69.4372 28.5781C69.9791 28.5781 70.4841 28.4488 70.9521 28.1901C71.4324 27.9315 71.8203 27.5435 72.1159 27.0263C72.4115 26.509 72.5593 25.8809 72.5593 25.1419C72.5593 24.403 72.4177 23.781 72.1344 23.2761C71.8511 22.7588 71.4755 22.3708 71.0075 22.1122C70.5395 21.8536 70.0345 21.7243 69.4926 21.7243C68.9507 21.7243 68.4458 21.8536 67.9778 22.1122C67.5221 22.3708 67.1588 22.7588 66.8878 23.2761C66.6169 23.781 66.4814 24.403 66.4814 25.1419C66.4814 26.238 66.7585 27.0878 67.3127 27.6913C67.8792 28.2825 68.5874 28.5781 69.4372 28.5781ZM81.2179 30.407C80.2573 30.407 79.389 30.1915 78.6131 29.7604C77.8372 29.317 77.2276 28.7012 76.7842 27.913C76.3408 27.1125 76.1191 26.1888 76.1191 25.1419C76.1191 24.1074 76.347 23.1898 76.8027 22.3893C77.2584 21.5888 77.8803 20.973 78.6685 20.5419C79.4567 20.1109 80.3373 19.8953 81.3103 19.8953C82.2833 19.8953 83.1638 20.1109 83.9521 20.5419C84.7403 20.973 85.3622 21.5888 85.8179 22.3893C86.2736 23.1898 86.5015 24.1074 86.5015 25.1419C86.5015 26.1765 86.2675 27.094 85.7995 27.8945C85.3314 28.6951 84.691 29.317 83.8782 29.7604C83.0776 30.1915 82.1909 30.407 81.2179 30.407ZM81.2179 28.5781C81.7598 28.5781 82.2648 28.4488 82.7328 28.1901C83.2131 27.9315 83.6011 27.5435 83.8966 27.0263C84.1922 26.509 84.34 25.8809 84.34 25.1419C84.34 24.403 84.1984 23.781 83.9151 23.2761C83.6318 22.7588 83.2562 22.3708 82.7882 22.1122C82.3202 21.8536 81.8152 21.7243 81.2733 21.7243C80.7314 21.7243 80.2265 21.8536 79.7585 22.1122C79.3028 22.3708 78.9395 22.7588 78.6685 23.2761C78.3976 23.781 78.2621 24.403 78.2621 25.1419C78.2621 26.238 78.5392 27.0878 79.0934 27.6913C79.66 28.2825 80.3681 28.5781 81.2179 28.5781ZM92.6107 25.1604L97.3031 30.2407H94.4581L90.6894 25.8624V30.2407H88.5834V16.57H90.6894V24.5138L94.3842 20.0616H97.3031L92.6107 25.1604ZM102.909 25.105C102.909 24.0828 103.119 23.1775 103.538 22.3893C103.969 21.6011 104.547 20.9915 105.274 20.5604C106.013 20.117 106.826 19.8953 107.713 19.8953C108.513 19.8953 109.209 20.0554 109.8 20.3757C110.404 20.6836 110.884 21.0715 111.241 21.5395V20.0616H113.366V30.2407H111.241V28.7259C110.884 29.2062 110.398 29.6065 109.782 29.9267C109.166 30.2469 108.464 30.407 107.676 30.407C106.801 30.407 106.001 30.1853 105.274 29.7419C104.547 29.2862 103.969 28.6581 103.538 27.8576C103.119 27.0447 102.909 26.1272 102.909 25.105ZM111.241 25.1419C111.241 24.4399 111.093 23.8303 110.798 23.313C110.515 22.7957 110.139 22.4016 109.671 22.1307C109.203 21.8597 108.698 21.7243 108.156 21.7243C107.614 21.7243 107.109 21.8597 106.641 22.1307C106.173 22.3893 105.791 22.7773 105.496 23.2945C105.213 23.7995 105.071 24.403 105.071 25.105C105.071 25.807 105.213 26.4228 105.496 26.9524C105.791 27.482 106.173 27.8884 106.641 28.1716C107.122 28.4426 107.626 28.5781 108.156 28.5781C108.698 28.5781 109.203 28.4426 109.671 28.1716C110.139 27.9007 110.515 27.5066 110.798 26.9893C111.093 26.4597 111.241 25.8439 111.241 25.1419ZM118.238 21.558C118.595 21.09 119.082 20.6959 119.697 20.3757C120.313 20.0554 121.009 19.8953 121.785 19.8953C122.672 19.8953 123.478 20.117 124.205 20.5604C124.944 20.9915 125.523 21.6011 125.942 22.3893C126.36 23.1775 126.57 24.0828 126.57 25.105C126.57 26.1272 126.36 27.0447 125.942 27.8576C125.523 28.6581 124.944 29.2862 124.205 29.7419C123.478 30.1853 122.672 30.407 121.785 30.407C121.009 30.407 120.319 30.253 119.716 29.9451C119.112 29.6249 118.62 29.2308 118.238 28.7628V35.0809H116.132V20.0616H118.238V21.558ZM124.427 25.105C124.427 24.403 124.279 23.7995 123.983 23.2945C123.7 22.7773 123.318 22.3893 122.838 22.1307C122.37 21.8597 121.865 21.7243 121.323 21.7243C120.793 21.7243 120.289 21.8597 119.808 22.1307C119.34 22.4016 118.958 22.7957 118.663 23.313C118.38 23.8303 118.238 24.4399 118.238 25.1419C118.238 25.8439 118.38 26.4597 118.663 26.9893C118.958 27.5066 119.34 27.9007 119.808 28.1716C120.289 28.4426 120.793 28.5781 121.323 28.5781C121.865 28.5781 122.37 28.4426 122.838 28.1716C123.318 27.8884 123.7 27.482 123.983 26.9524C124.279 26.4228 124.427 25.807 124.427 25.105ZM130.758 21.558C131.115 21.09 131.602 20.6959 132.218 20.3757C132.834 20.0554 133.529 19.8953 134.305 19.8953C135.192 19.8953 135.999 20.117 136.725 20.5604C137.464 20.9915 138.043 21.6011 138.462 22.3893C138.881 23.1775 139.09 24.0828 139.09 25.105C139.09 26.1272 138.881 27.0447 138.462 27.8576C138.043 28.6581 137.464 29.2862 136.725 29.7419C135.999 30.1853 135.192 30.407 134.305 30.407C133.529 30.407 132.84 30.253 132.236 29.9451C131.633 29.6249 131.14 29.2308 130.758 28.7628V35.0809H128.652V20.0616H130.758V21.558ZM136.947 25.105C136.947 24.403 136.799 23.7995 136.504 23.2945C136.22 22.7773 135.839 22.3893 135.358 22.1307C134.89 21.8597 134.385 21.7243 133.843 21.7243C133.314 21.7243 132.809 21.8597 132.329 22.1307C131.861 22.4016 131.479 22.7957 131.183 23.313C130.9 23.8303 130.758 24.4399 130.758 25.1419C130.758 25.8439 130.9 26.4597 131.183 26.9893C131.479 27.5066 131.861 27.9007 132.329 28.1716C132.809 28.4426 133.314 28.5781 133.843 28.5781C134.385 28.5781 134.89 28.4426 135.358 28.1716C135.839 27.8884 136.22 27.482 136.504 26.9524C136.799 26.4228 136.947 25.807 136.947 25.105ZM145.588 30.407C144.627 30.407 143.759 30.1915 142.983 29.7604C142.207 29.317 141.598 28.7012 141.154 27.913C140.711 27.1125 140.489 26.1888 140.489 25.1419C140.489 24.1074 140.717 23.1898 141.173 22.3893C141.628 21.5888 142.25 20.973 143.039 20.5419C143.827 20.1109 144.707 19.8953 145.68 19.8953C146.653 19.8953 147.534 20.1109 148.322 20.5419C149.11 20.973 149.732 21.5888 150.188 22.3893C150.644 23.1898 150.871 24.1074 150.871 25.1419C150.871 26.1765 150.637 27.094 150.169 27.8945C149.701 28.6951 149.061 29.317 148.248 29.7604C147.448 30.1915 146.561 30.407 145.588 30.407ZM145.588 28.5781C146.13 28.5781 146.635 28.4488 147.103 28.1901C147.583 27.9315 147.971 27.5435 148.267 27.0263C148.562 26.509 148.71 25.8809 148.71 25.1419C148.71 24.403 148.568 23.781 148.285 23.2761C148.002 22.7588 147.626 22.3708 147.158 22.1122C146.69 21.8536 146.185 21.7243 145.643 21.7243C145.101 21.7243 144.597 21.8536 144.129 22.1122C143.673 22.3708 143.309 22.7588 143.039 23.2761C142.768 23.781 142.632 24.403 142.632 25.1419C142.632 26.238 142.909 27.0878 143.463 27.6913C144.03 28.2825 144.738 28.5781 145.588 28.5781ZM154.025 18.713C153.643 18.713 153.323 18.5837 153.064 18.3251C152.806 18.0664 152.676 17.7462 152.676 17.3644C152.676 16.9826 152.806 16.6624 153.064 16.4038C153.323 16.1451 153.643 16.0158 154.025 16.0158C154.394 16.0158 154.708 16.1451 154.967 16.4038C155.226 16.6624 155.355 16.9826 155.355 17.3644C155.355 17.7462 155.226 18.0664 154.967 18.3251C154.708 18.5837 154.394 18.713 154.025 18.713ZM155.059 20.0616V30.2407H152.953V20.0616H155.059ZM162.96 19.8953C163.761 19.8953 164.475 20.0616 165.103 20.3941C165.744 20.7267 166.242 21.2193 166.6 21.872C166.957 22.5248 167.135 23.313 167.135 24.2367V30.2407H165.048V24.5508C165.048 23.6394 164.82 22.9435 164.364 22.4632C163.909 21.9706 163.287 21.7243 162.498 21.7243C161.71 21.7243 161.082 21.9706 160.614 22.4632C160.158 22.9435 159.93 23.6394 159.93 24.5508V30.2407H157.824V20.0616H159.93V21.2255C160.275 20.8067 160.713 20.4803 161.242 20.2463C161.784 20.0123 162.357 19.8953 162.96 19.8953ZM172.279 21.7797V27.4142C172.279 27.796 172.365 28.0731 172.537 28.2455C172.722 28.4056 173.03 28.4857 173.461 28.4857H174.754V30.2407H173.092C172.143 30.2407 171.417 30.019 170.912 29.5757C170.407 29.1323 170.154 28.4118 170.154 27.4142V21.7797H168.953V20.0616H170.154V17.5307H172.279V20.0616H174.754V21.7797H172.279ZM189.017 19.8953C189.818 19.8953 190.532 20.0616 191.16 20.3941C191.801 20.7267 192.3 21.2193 192.657 21.872C193.026 22.5248 193.211 23.313 193.211 24.2367V30.2407H191.123V24.5508C191.123 23.6394 190.896 22.9435 190.44 22.4632C189.984 21.9706 189.362 21.7243 188.574 21.7243C187.786 21.7243 187.158 21.9706 186.69 22.4632C186.234 22.9435 186.006 23.6394 186.006 24.5508V30.2407H183.919V24.5508C183.919 23.6394 183.691 22.9435 183.235 22.4632C182.779 21.9706 182.157 21.7243 181.369 21.7243C180.581 21.7243 179.953 21.9706 179.485 22.4632C179.029 22.9435 178.801 23.6394 178.801 24.5508V30.2407H176.695V20.0616H178.801V21.2255C179.146 20.8067 179.583 20.4803 180.113 20.2463C180.643 20.0123 181.209 19.8953 181.813 19.8953C182.625 19.8953 183.352 20.0678 183.992 20.4126C184.633 20.7575 185.126 21.2562 185.47 21.909C185.778 21.2932 186.259 20.8067 186.911 20.4496C187.564 20.0801 188.266 19.8953 189.017 19.8953ZM205.22 24.9018C205.22 25.2836 205.195 25.6284 205.146 25.9363H197.369C197.43 26.7492 197.732 27.4019 198.274 27.8945C198.816 28.3872 199.481 28.6335 200.269 28.6335C201.402 28.6335 202.203 28.1593 202.671 27.211H204.943C204.635 28.147 204.075 28.9168 203.262 29.5202C202.461 30.1114 201.464 30.407 200.269 30.407C199.296 30.407 198.422 30.1915 197.646 29.7604C196.882 29.317 196.279 28.7012 195.835 27.913C195.404 27.1125 195.189 26.1888 195.189 25.1419C195.189 24.0951 195.398 23.1775 195.817 22.3893C196.248 21.5888 196.845 20.973 197.609 20.5419C198.385 20.1109 199.272 19.8953 200.269 19.8953C201.23 19.8953 202.086 20.1047 202.837 20.5234C203.588 20.9422 204.173 21.5334 204.592 22.2969C205.011 23.0482 205.22 23.9165 205.22 24.9018ZM203.022 24.2367C203.009 23.4608 202.732 22.8388 202.19 22.3708C201.648 21.9028 200.977 21.6688 200.177 21.6688C199.45 21.6688 198.828 21.9028 198.311 22.3708C197.794 22.8265 197.486 23.4485 197.387 24.2367H203.022ZM212.428 19.8953C213.229 19.8953 213.943 20.0616 214.571 20.3941C215.212 20.7267 215.711 21.2193 216.068 21.872C216.425 22.5248 216.604 23.313 216.604 24.2367V30.2407H214.516V24.5508C214.516 23.6394 214.288 22.9435 213.832 22.4632C213.377 21.9706 212.755 21.7243 211.967 21.7243C211.178 21.7243 210.55 21.9706 210.082 22.4632C209.627 22.9435 209.399 23.6394 209.399 24.5508V30.2407H207.293V20.0616H209.399V21.2255C209.744 20.8067 210.181 20.4803 210.71 20.2463C211.252 20.0123 211.825 19.8953 212.428 19.8953ZM221.747 21.7797V27.4142C221.747 27.796 221.833 28.0731 222.006 28.2455C222.19 28.4056 222.498 28.4857 222.929 28.4857H224.222V30.2407H222.56C221.611 30.2407 220.885 30.019 220.38 29.5757C219.875 29.1323 219.622 28.4118 219.622 27.4142V21.7797H218.422V20.0616H219.622V17.5307H221.747V20.0616H224.222V21.7797H221.747Z" fill="white"/>
<defs>
<linearGradient id="paint0_linear_829_174" x1="155.5" y1="0" x2="155.5" y2="48" gradientUnits="userSpaceOnUse">
<stop stop-color="#26AC00"/>
<stop offset="1" stop-color="#166600"/>
</linearGradient>
</defs>
</svg>
