<svg width="56" height="56" viewBox="0 0 56 56" fill="none" xmlns="http://www.w3.org/2000/svg">
<path d="M44 1H12C5.92487 1 1 5.92487 1 12V44C1 50.0751 5.92487 55 12 55H44C50.0751 55 55 50.0751 55 44V12C55 5.92487 50.0751 1 44 1Z" stroke="#208703" stroke-width="2"/>
<path fill-rule="evenodd" clip-rule="evenodd" d="M32.939 19C34.28 19 35.57 19.53 36.519 20.481C37.469 21.43 38 22.71 38 24.05V31.95C38 34.74 35.73 37 32.939 37H23.06C20.269 37 18 34.74 18 31.95V24.05C18 21.26 20.259 19 23.06 19H32.939ZM34.53 25.54L34.61 25.46C34.849 25.17 34.849 24.75 34.599 24.46C34.46 24.311 34.269 24.22 34.07 24.2C33.86 24.189 33.66 24.26 33.509 24.4L29 28C28.42 28.481 27.589 28.481 27 28L22.5 24.4C22.189 24.17 21.759 24.2 21.5 24.47C21.23 24.74 21.2 25.17 21.429 25.47L21.56 25.6L26.11 29.15C26.67 29.59 27.349 29.83 28.06 29.83C28.769 29.83 29.46 29.59 30.019 29.15L34.53 25.54Z" fill="#208703"/>
</svg>
