<svg width="150" height="103" viewBox="0 0 150 103" fill="none" xmlns="http://www.w3.org/2000/svg">
<path d="M78.9604 0.986964C77.8806 2.3683 76.9669 3.87928 76.239 5.48698C74.948 8.30555 74.3423 11.4061 74.4743 14.5203C74.6549 17.6366 75.5285 20.6683 77.0276 23.3804C78.77 26.5469 81.0213 29.3851 83.6856 31.7737C84.8537 32.9321 85.9022 34.2123 86.8142 35.5937C89.0343 38.6834 91.0285 41.9391 92.7805 45.3338C93.7618 47.2066 94.5152 49.1972 95.0235 51.2605C95.349 52.5175 95.3239 53.8438 94.9511 55.0868C94.5783 56.3298 93.873 57.4391 92.9162 58.2872C91.5282 59.5858 89.8453 60.5029 88.0229 60.9538C85.8612 61.5478 83.6269 61.8128 81.3908 61.7405C79.0857 61.6895 76.7871 61.4667 74.5131 61.0738C73.8154 60.9872 73.11 60.9872 72.4123 61.0738C71.7659 61.1472 71.559 61.6138 71.9146 62.2072C72.1429 62.6125 72.4407 62.9717 72.7937 63.2672C74.6359 64.6405 76.517 65.9739 78.3786 67.3272C78.4982 67.3978 78.5984 67.4988 78.6695 67.6205C78.0231 67.5472 77.3767 67.5005 76.7303 67.4272C74.6763 67.1936 72.6368 66.8397 70.6217 66.3672C67.5914 65.6918 64.6568 64.6209 61.8888 63.1805C59.8075 62.1519 57.9411 60.7139 56.3944 58.9472C55.3244 57.7592 54.5114 56.3503 54.0092 54.8138C53.7777 54.0383 53.762 53.2114 53.9639 52.4271C54.0471 52.0423 54.2119 51.6812 54.4467 51.3699C54.6814 51.0587 54.9801 50.805 55.3214 50.6271C56.6309 49.9322 58.1427 49.7589 59.5682 50.1405C60.5869 50.4271 61.5796 50.804 62.5352 51.2671C65.5849 52.5796 68.7188 53.6733 71.9146 54.5405C73.5973 55.0367 75.3358 55.3034 77.0858 55.3338C77.905 55.3064 78.7203 55.2061 79.5227 55.0338C80.3035 54.8886 81.0075 54.4583 81.506 53.8218C82.0045 53.1852 82.2642 52.3849 82.2376 51.5671C82.2127 50.1542 81.9298 48.7587 81.4038 47.4538C80.6213 45.4881 79.5958 43.635 78.3527 41.9404C77.4672 40.6071 76.3683 39.5271 75.3664 38.3004C72.6772 35.1257 70.4438 31.5695 68.7342 27.7404C67.842 25.728 67.2931 23.5719 67.1118 21.367C67.018 19.4597 67.2522 17.5502 67.8034 15.727C68.7583 12.4247 70.3846 9.37022 72.5739 6.76698C74.4008 4.5753 76.4754 2.61693 78.7535 0.93363C78.7535 0.93363 78.8311 0.93363 78.8505 0.886963C78.9151 0.960296 78.9345 0.986964 78.9604 0.986964Z" fill="#EF5C26"/>
<path d="M67.0598 10.7338C66.6526 11.4005 66.2001 12.1138 65.8187 12.8271C64.332 15.436 63.2974 18.292 62.7612 21.2671C62.2565 23.8556 62.3636 26.5313 63.0736 29.068C63.7836 31.6047 65.0755 33.9277 66.84 35.8405C67.7944 36.914 68.8512 37.8856 69.9945 38.7405C71.3864 39.8717 72.6428 41.1697 73.7372 42.6072C74.7276 43.7647 75.519 45.0882 76.0772 46.5206C76.2722 47.079 76.4171 47.6548 76.5103 48.2406C76.5932 48.8702 76.4894 49.511 76.2125 50.0786C75.9356 50.6462 75.4986 51.114 74.9589 51.4206C74.3266 51.8704 73.5937 52.1468 72.8293 52.2238C72.0648 52.3008 71.2939 52.1758 70.5892 51.8606C69.4819 51.3949 68.4706 50.7162 67.6093 49.8606C65.5429 47.8136 63.7457 45.4961 62.2635 42.9672C60.9836 40.8926 59.9792 38.6504 59.2771 36.3005C58.7162 34.5231 58.4817 32.6533 58.5854 30.7872C58.7687 28.3649 59.2175 25.9718 59.9235 23.6538C61.4044 18.9007 63.7887 14.4995 66.937 10.7071L67.0081 10.6338C67.0171 10.671 67.0349 10.7053 67.0598 10.7338Z" fill="#F4941F"/>
<path d="M58.1271 30.6664C58.0819 30.7597 58.0302 30.833 57.9849 30.933C57.1514 32.3446 56.6141 33.9207 56.4077 35.5597C56.2706 36.5782 56.3467 37.6152 56.6311 38.6008C56.9154 39.5864 57.4013 40.4976 58.056 41.2731C58.6281 41.9067 59.2414 42.4992 59.8918 43.0464C61.0877 44.1531 62.1865 45.3064 62.6843 46.9331C62.7919 47.203 62.8129 47.5013 62.7443 47.7844C62.6757 48.0675 62.521 48.3205 62.3029 48.5064C62.0486 48.7993 61.7127 49.0038 61.3412 49.0921C60.9698 49.1805 60.5809 49.1482 60.2279 48.9998C59.7097 48.8077 59.2315 48.5158 58.8188 48.1398C56.8703 46.3146 55.4685 43.9529 54.7788 41.3331C54.4733 39.9406 54.5155 38.4908 54.9016 37.1197C55.4388 34.7858 56.4647 32.6013 57.9074 30.7197C57.9526 30.6731 58.0043 30.5997 58.0496 30.5464C58.0819 30.6197 58.1013 30.6664 58.1271 30.6664Z" fill="#208703"/>
<path d="M149.004 90.9263H99.7354V102.226H149.004V90.9263Z" fill="#208703"/>
<path d="M5.43831 75.4662H0.97168V73.7996H11.8441V75.4662H7.35812V88.9463H5.41892L5.43831 75.4662Z" fill="url(#paint0_linear_30_2)"/>
<path d="M13.2596 72.9932H15.1988V79.7798H15.244C15.5687 79.1949 16.0427 78.713 16.6144 78.3865C17.2029 78.0299 17.8711 77.8369 18.5536 77.8265C19.9693 77.8265 22.2317 78.7198 22.2317 82.4932V88.9665H20.2925V82.7198C20.2925 80.9665 19.6461 79.4865 17.8491 79.4865C17.2684 79.4952 16.7054 79.6935 16.2409 80.0528C15.7764 80.4122 15.4342 80.9141 15.2634 81.4865C15.1565 81.7893 15.1103 82.1114 15.1277 82.4331V88.9931H13.1885L13.2596 72.9932Z" fill="url(#paint1_linear_30_2)"/>
<path d="M26.414 83.8665C26.4593 86.5332 28.1141 87.6398 30.0274 87.6398C31.0291 87.6727 32.0258 87.4816 32.9492 87.0798L33.2788 88.4932C32.1669 88.966 30.9712 89.1931 29.7689 89.1598C26.5369 89.1598 24.5977 86.9598 24.5977 83.6798C24.5977 80.3998 26.4722 77.8198 29.5426 77.8198C32.9815 77.8198 33.8994 80.9398 33.8994 82.9398C33.8952 83.2475 33.8736 83.5547 33.8347 83.8598L26.414 83.8665ZM32.0313 82.4532C32.0313 81.1932 31.5335 79.2398 29.3746 79.2398C27.4354 79.2398 26.5886 81.0798 26.4334 82.4532H32.0313Z" fill="url(#paint2_linear_30_2)"/>
<path d="M52.1151 88.2663C50.6641 88.8086 49.1336 89.0904 47.5903 89.0996C46.5874 89.2004 45.5753 89.0731 44.6253 88.7268C43.6753 88.3804 42.8104 87.8234 42.0918 87.0949C41.3732 86.3665 40.8182 85.4843 40.466 84.5107C40.1137 83.537 39.9728 82.4955 40.0532 81.4596C40.0532 76.9463 43.0784 73.6463 48.004 73.6463C49.2549 73.6077 50.5002 73.8346 51.6626 74.313L51.2037 75.913C50.1867 75.4492 49.0833 75.2216 47.9717 75.2463C44.397 75.2463 42.07 77.5396 42.07 81.333C42.07 85.1263 44.313 87.4396 47.7325 87.4396C48.5928 87.4893 49.4536 87.353 50.2599 87.0396V82.5263H47.28V80.953H52.1151V88.2663Z" fill="url(#paint3_linear_30_2)"/>
<path d="M60.9575 88.9464L60.8088 87.573H60.7377C60.363 88.0891 59.8743 88.5053 59.3121 88.7871C58.7499 89.0689 58.1306 89.208 57.5057 89.193C57.0901 89.2254 56.6726 89.1683 56.2796 89.0254C55.8867 88.8825 55.5268 88.6569 55.2229 88.3629C54.9189 88.0688 54.6776 87.7129 54.5142 87.3175C54.3508 86.9222 54.2689 86.4961 54.2736 86.0664C54.2736 83.4397 56.5361 81.9997 60.6149 82.0264V81.7997C60.6149 80.8997 60.3692 79.2864 58.2167 79.2864C57.2464 79.2892 56.2957 79.5684 55.4695 80.093L55.0364 78.7597C56.0828 78.1149 57.2823 77.7826 58.5011 77.7997C61.7331 77.7997 62.5088 80.0664 62.5088 82.2464V86.313C62.4927 87.1855 62.5511 88.0578 62.6834 88.9197L60.9575 88.9464ZM60.673 83.393C58.5852 83.353 56.2129 83.733 56.2129 85.8464C56.1928 86.0965 56.2253 86.3481 56.3081 86.5841C56.3909 86.8202 56.522 87.035 56.6925 87.214C56.8631 87.3931 57.069 87.5321 57.2963 87.6217C57.5236 87.7112 57.767 87.7492 58.0099 87.733C58.568 87.7541 59.1178 87.5881 59.5769 87.2601C60.036 86.932 60.3797 86.4594 60.5567 85.913C60.6311 85.6992 60.6683 85.4735 60.6666 85.2464L60.673 83.393Z" fill="url(#paint4_linear_30_2)"/>
<path d="M65.3596 86.9206C66.1175 87.4139 66.991 87.6858 67.887 87.7073C69.2768 87.7073 69.9296 86.9873 69.9296 86.094C69.9296 85.2006 69.3867 84.634 67.9904 84.094C66.0965 83.4273 65.2044 82.3206 65.2044 81.014C65.2044 79.2606 66.5748 77.8273 68.8372 77.8273C69.7404 77.8161 70.631 78.0457 71.4228 78.494L70.938 79.934C70.2901 79.5249 69.5452 79.308 68.7855 79.3073C67.6543 79.3073 67.0208 79.974 67.0208 80.7873C67.0208 81.6006 67.6672 82.1206 69.0247 82.634C70.854 83.354 71.7913 84.294 71.7913 85.914C71.7913 87.8206 70.3498 89.1673 67.8482 89.1673C66.8161 89.1869 65.7966 88.932 64.8877 88.4273L65.3596 86.9206Z" fill="url(#paint5_linear_30_2)"/>
<path d="M76.5559 74.9465V78.0732H79.2966V79.5732H76.5559V85.4398C76.5559 86.7732 76.9243 87.5532 77.9909 87.5532C78.3659 87.5575 78.7397 87.5104 79.1027 87.4132L79.1867 88.8998C78.6425 89.0935 78.0687 89.1839 77.4932 89.1665C77.1095 89.1902 76.7253 89.1281 76.3672 88.9842C76.009 88.8404 75.6853 88.6183 75.4182 88.3332C74.8752 87.7532 74.6813 86.7865 74.6813 85.5065V79.5732H73.0459V78.0732H74.6813V75.4665L76.5559 74.9465Z" fill="url(#paint6_linear_30_2)"/>
<path d="M81.4557 81.4608C81.4557 80.1808 81.4557 79.0808 81.3652 78.0741H83.0459L83.1105 80.2075H83.2204C83.4005 79.5429 83.7804 78.9544 84.3055 78.5267C84.8305 78.099 85.4736 77.8542 86.1421 77.8275C86.3252 77.8242 86.5079 77.8466 86.6851 77.8941V79.7541C86.4724 79.7093 86.2558 79.6869 86.0387 79.6875C84.6877 79.6875 83.7311 80.7475 83.4531 82.2275C83.4029 82.5315 83.3748 82.8391 83.3691 83.1475V88.9475H81.4751L81.4557 81.4608Z" fill="url(#paint7_linear_30_2)"/>
<path d="M97.8994 83.4205C97.8994 87.4204 95.1974 89.1938 92.6506 89.1938C89.7935 89.1938 87.5957 87.0338 87.5957 83.6005C87.5957 79.9605 89.9034 77.8271 92.8251 77.8271C95.8503 77.8271 97.8994 80.0938 97.8994 83.4205ZM89.5349 83.5271C89.5349 85.9138 90.8277 87.7071 92.7346 87.7071C94.6415 87.7071 95.9343 85.9338 95.9343 83.4871C95.9343 81.6405 95.0423 79.3071 92.7799 79.3071C90.5174 79.3071 89.5349 81.4605 89.5349 83.5271Z" fill="url(#paint8_linear_30_2)"/>
<path d="M110.369 72.993V85.6597C110.369 86.893 110.408 88.193 110.453 88.9397H107.525L107.376 87.3197H107.331C106.988 87.9102 106.497 88.3949 105.911 88.7232C105.324 89.0516 104.663 89.2115 103.996 89.1864C101.468 89.1864 99.4707 86.9597 99.4707 83.5464C99.4707 79.8397 101.694 77.7063 104.241 77.7063C104.772 77.6568 105.307 77.7435 105.797 77.9587C106.288 78.1738 106.719 78.5109 107.053 78.9397H107.092V72.9863L110.369 72.993ZM107.053 82.6063C107.053 82.4263 107.053 82.1797 107.014 81.9997C106.93 81.5311 106.691 81.1072 106.337 80.8007C105.983 80.4942 105.537 80.3241 105.075 80.3197C103.569 80.3197 102.787 81.713 102.787 83.4397C102.787 85.3064 103.679 86.473 105.049 86.473C105.508 86.4807 105.955 86.3201 106.31 86.0198C106.666 85.7195 106.906 85.2989 106.988 84.833C107.051 84.5759 107.079 84.3113 107.072 84.0464L107.053 82.6063Z" fill="url(#paint9_linear_30_2)"/>
<path d="M115.585 84.5394C115.695 85.9527 117.046 86.626 118.591 86.626C119.588 86.6398 120.581 86.489 121.532 86.1794L121.965 88.4927C120.725 88.9669 119.409 89.1932 118.087 89.1594C114.467 89.1594 112.398 87.0061 112.398 83.5661C112.398 80.7794 114.079 77.7061 117.783 77.7061C121.222 77.7061 122.528 80.4661 122.528 83.186C122.528 83.6329 122.491 84.079 122.418 84.5194L115.585 84.5394ZM119.464 82.206C119.464 81.3727 119.115 79.9794 117.589 79.9794C116.199 79.9794 115.65 81.2794 115.54 82.206H119.464Z" fill="url(#paint10_linear_30_2)"/>
<path d="M124.538 81.5738C124.538 79.9605 124.493 78.9072 124.447 77.9605H127.304L127.414 79.9605H127.498C127.69 79.3213 128.07 78.7595 128.585 78.3533C129.101 77.9471 129.726 77.7166 130.375 77.6938C130.608 77.6839 130.842 77.6995 131.073 77.7405V80.9472C130.776 80.8917 130.476 80.8627 130.174 80.8605C129.658 80.8146 129.143 80.9647 128.727 81.2826C128.31 81.6006 128.02 82.0645 127.912 82.5872C127.866 82.8399 127.844 83.0967 127.847 83.3538V88.9272H124.538V81.5738Z" fill="url(#paint11_linear_30_2)"/>
<path d="M132.812 81.4598C132.812 80.0931 132.766 78.9264 132.728 77.9598H135.514L135.662 79.4398H135.733C136.081 78.888 136.562 78.4387 137.128 78.1361C137.695 77.8334 138.328 77.6877 138.965 77.7131C139.578 77.6812 140.185 77.842 140.707 78.1742C141.229 78.5063 141.64 78.9942 141.887 79.5731H141.932C142.296 79.0369 142.763 78.5832 143.303 78.2398C143.916 77.87 144.616 77.683 145.326 77.6998C147.375 77.6998 148.92 79.1798 148.92 82.4597V88.9331H145.688V82.9331C145.688 81.3397 145.19 80.4198 144.124 80.4198C143.78 80.4256 143.448 80.5437 143.174 80.7569C142.899 80.9702 142.698 81.2676 142.598 81.6064C142.512 81.8914 142.469 82.188 142.469 82.4864V88.9131H139.237V82.7531C139.237 81.3598 138.758 80.4198 137.711 80.4198C137.362 80.4346 137.025 80.5613 136.748 80.7823C136.471 81.0033 136.268 81.3076 136.166 81.6531C136.071 81.9263 136.027 82.216 136.037 82.5064V88.9131H132.805L132.812 81.4598Z" fill="url(#paint12_linear_30_2)"/>
<path d="M113.847 95.8606H113.054C113.007 95.6326 112.925 95.4323 112.808 95.2597C112.693 95.0872 112.552 94.9423 112.386 94.8251C112.222 94.7058 112.04 94.6163 111.84 94.5566C111.639 94.497 111.431 94.4671 111.213 94.4671C110.817 94.4671 110.458 94.5673 110.136 94.7676C109.817 94.9678 109.562 95.2629 109.372 95.6529C109.185 96.0428 109.091 96.5211 109.091 97.0879C109.091 97.6546 109.185 98.133 109.372 98.5229C109.562 98.9128 109.817 99.2079 110.136 99.4082C110.458 99.6085 110.817 99.7086 111.213 99.7086C111.431 99.7086 111.639 99.6788 111.84 99.6191C112.04 99.5595 112.222 99.471 112.386 99.3538C112.552 99.2345 112.693 99.0886 112.808 98.916C112.925 98.7413 113.007 98.541 113.054 98.3151H113.847C113.787 98.6497 113.678 98.949 113.521 99.2132C113.363 99.4774 113.167 99.7022 112.933 99.8876C112.698 100.071 112.435 100.21 112.143 100.306C111.854 100.402 111.544 100.45 111.213 100.45C110.655 100.45 110.159 100.314 109.724 100.041C109.289 99.7683 108.947 99.3805 108.698 98.8776C108.449 98.3748 108.324 97.7782 108.324 97.0879C108.324 96.3975 108.449 95.8009 108.698 95.2981C108.947 94.7953 109.289 94.4075 109.724 94.1347C110.159 93.862 110.655 93.7257 111.213 93.7257C111.544 93.7257 111.854 93.7736 112.143 93.8695C112.435 93.9654 112.698 94.106 112.933 94.2913C113.167 94.4746 113.363 94.6983 113.521 94.9625C113.678 95.2246 113.787 95.5239 113.847 95.8606ZM115.78 93.8151V100.361H115.025V93.8151H115.78ZM117.161 100.361V95.4515H117.915V100.361H117.161ZM117.545 94.6333C117.398 94.6333 117.271 94.5833 117.164 94.4831C117.06 94.383 117.008 94.2626 117.008 94.122C117.008 93.9813 117.06 93.861 117.164 93.7608C117.271 93.6607 117.398 93.6106 117.545 93.6106C117.692 93.6106 117.817 93.6607 117.922 93.7608C118.028 93.861 118.081 93.9813 118.081 94.122C118.081 94.2626 118.028 94.383 117.922 94.4831C117.817 94.5833 117.692 94.6333 117.545 94.6333ZM120.051 97.4075V100.361H119.297V95.4515H120.025V96.2186H120.089C120.204 95.9693 120.379 95.769 120.614 95.6177C120.848 95.4643 121.15 95.3876 121.521 95.3876C121.854 95.3876 122.144 95.4558 122.394 95.5921C122.643 95.7264 122.837 95.9309 122.975 96.2058C123.114 96.4785 123.183 96.8237 123.183 97.2413V100.361H122.429V97.2924C122.429 96.9068 122.329 96.6063 122.128 96.3911C121.928 96.1738 121.653 96.0651 121.304 96.0651C121.063 96.0651 120.848 96.1173 120.658 96.2217C120.471 96.3261 120.323 96.4785 120.214 96.6788C120.105 96.8791 120.051 97.122 120.051 97.4075ZM124.561 100.361V95.4515H125.316V100.361H124.561ZM124.945 94.6333C124.798 94.6333 124.671 94.5833 124.565 94.4831C124.46 94.383 124.408 94.2626 124.408 94.122C124.408 93.9813 124.46 93.861 124.565 93.7608C124.671 93.6607 124.798 93.6106 124.945 93.6106C125.092 93.6106 125.218 93.6607 125.322 93.7608C125.429 93.861 125.482 93.9813 125.482 94.122C125.482 94.2626 125.429 94.383 125.322 94.4831C125.218 94.5833 125.092 94.6333 124.945 94.6333ZM128.691 100.463C128.231 100.463 127.835 100.354 127.503 100.137C127.17 99.9195 126.915 99.6202 126.736 99.2388C126.557 98.8574 126.467 98.4217 126.467 97.9316C126.467 97.433 126.559 96.9931 126.742 96.6117C126.927 96.2281 127.185 95.9288 127.515 95.7136C127.848 95.4962 128.236 95.3876 128.679 95.3876C129.024 95.3876 129.335 95.4515 129.612 95.5793C129.889 95.7072 130.116 95.8862 130.293 96.1163C130.47 96.3464 130.579 96.6149 130.622 96.9217H129.868C129.81 96.698 129.682 96.4998 129.484 96.3272C129.288 96.1525 129.024 96.0651 128.691 96.0651C128.397 96.0651 128.14 96.1418 127.918 96.2953C127.699 96.4465 127.527 96.6607 127.403 96.9377C127.282 97.2125 127.221 97.5353 127.221 97.9061C127.221 98.2853 127.281 98.6156 127.4 98.8968C127.522 99.1781 127.692 99.3965 127.912 99.552C128.133 99.7075 128.393 99.7853 128.691 99.7853C128.888 99.7853 129.065 99.7512 129.225 99.683C129.385 99.6149 129.52 99.5168 129.631 99.389C129.742 99.2612 129.821 99.1078 129.868 98.9288H130.622C130.579 99.2186 130.474 99.4796 130.305 99.7118C130.139 99.9419 129.919 100.125 129.644 100.262C129.371 100.396 129.054 100.463 128.691 100.463Z" fill="white"/>
<path d="M4.13281 96.74H100.008" stroke="#208703" stroke-miterlimit="10"/>
<defs>
<linearGradient id="paint0_linear_30_2" x1="4.79837" y1="80.9929" x2="129.804" y2="92.7008" gradientUnits="userSpaceOnUse">
<stop stop-color="#EF5C26"/>
<stop offset="0.49" stop-color="#F27922"/>
<stop offset="1" stop-color="#F4941F"/>
</linearGradient>
<linearGradient id="paint1_linear_30_2" x1="4.88216" y1="80.0398" x2="129.895" y2="91.7479" gradientUnits="userSpaceOnUse">
<stop stop-color="#EF5C26"/>
<stop offset="0.49" stop-color="#F27922"/>
<stop offset="1" stop-color="#F4941F"/>
</linearGradient>
<linearGradient id="paint2_linear_30_2" x1="4.79192" y1="81.0265" x2="129.804" y2="92.7344" gradientUnits="userSpaceOnUse">
<stop stop-color="#EF5C26"/>
<stop offset="0.49" stop-color="#F27922"/>
<stop offset="1" stop-color="#F4941F"/>
</linearGradient>
<linearGradient id="paint3_linear_30_2" x1="5.16033" y1="77.1263" x2="130.166" y2="88.8344" gradientUnits="userSpaceOnUse">
<stop stop-color="#EF5C26"/>
<stop offset="0.49" stop-color="#F27922"/>
<stop offset="1" stop-color="#F4941F"/>
</linearGradient>
<linearGradient id="paint4_linear_30_2" x1="5.0564" y1="78.2264" x2="130.069" y2="89.9344" gradientUnits="userSpaceOnUse">
<stop stop-color="#EF5C26"/>
<stop offset="0.49" stop-color="#F27922"/>
<stop offset="1" stop-color="#F4941F"/>
</linearGradient>
<linearGradient id="paint5_linear_30_2" x1="5.14707" y1="77.2073" x2="130.16" y2="88.9153" gradientUnits="userSpaceOnUse">
<stop stop-color="#EF5C26"/>
<stop offset="0.49" stop-color="#F27922"/>
<stop offset="1" stop-color="#F4941F"/>
</linearGradient>
<linearGradient id="paint6_linear_30_2" x1="5.3611" y1="74.9265" x2="130.373" y2="86.6345" gradientUnits="userSpaceOnUse">
<stop stop-color="#EF5C26"/>
<stop offset="0.49" stop-color="#F27922"/>
<stop offset="1" stop-color="#F4941F"/>
</linearGradient>
<linearGradient id="paint7_linear_30_2" x1="5.30304" y1="75.5608" x2="130.315" y2="87.2687" gradientUnits="userSpaceOnUse">
<stop stop-color="#EF5C26"/>
<stop offset="0.49" stop-color="#F27922"/>
<stop offset="1" stop-color="#F4941F"/>
</linearGradient>
<linearGradient id="paint8_linear_30_2" x1="5.37303" y1="74.8072" x2="130.386" y2="86.5153" gradientUnits="userSpaceOnUse">
<stop stop-color="#EF5C26"/>
<stop offset="0.49" stop-color="#F27922"/>
<stop offset="1" stop-color="#F4941F"/>
</linearGradient>
<linearGradient id="paint9_linear_30_2" x1="5.72947" y1="70.993" x2="130.742" y2="82.7009" gradientUnits="userSpaceOnUse">
<stop stop-color="#EF5C26"/>
<stop offset="0.49" stop-color="#F27922"/>
<stop offset="1" stop-color="#F4941F"/>
</linearGradient>
<linearGradient id="paint10_linear_30_2" x1="5.61279" y1="72.2527" x2="130.625" y2="83.9606" gradientUnits="userSpaceOnUse">
<stop stop-color="#EF5C26"/>
<stop offset="0.49" stop-color="#F27922"/>
<stop offset="1" stop-color="#F4941F"/>
</linearGradient>
<linearGradient id="paint11_linear_30_2" x1="5.71613" y1="71.1805" x2="130.728" y2="82.8885" gradientUnits="userSpaceOnUse">
<stop stop-color="#EF5C26"/>
<stop offset="0.49" stop-color="#F27922"/>
<stop offset="1" stop-color="#F4941F"/>
</linearGradient>
<linearGradient id="paint12_linear_30_2" x1="5.8195" y1="70.0465" x2="130.832" y2="81.7545" gradientUnits="userSpaceOnUse">
<stop stop-color="#EF5C26"/>
<stop offset="0.49" stop-color="#F27922"/>
<stop offset="1" stop-color="#F4941F"/>
</linearGradient>
</defs>
</svg>
