<svg width="18" height="19" viewBox="0 0 18 19" fill="none" xmlns="http://www.w3.org/2000/svg">
<path fill-rule="evenodd" clip-rule="evenodd" d="M17.5607 2.65148C18.1464 2.06569 18.1464 1.11595 17.5607 0.53016C16.9749 -0.0556263 16.0251 -0.0556263 15.4393 0.53016L9 6.9695L2.56066 0.530161C1.97487 -0.0556248 1.02513 -0.0556248 0.43934 0.530162C-0.146447 1.11595 -0.146447 2.0657 0.43934 2.65148L6.87868 9.09082L0.43934 15.5302C-0.146447 16.1159 -0.146447 17.0657 0.43934 17.6515C1.02513 18.2373 1.97487 18.2373 2.56066 17.6515L9 11.2121L15.4393 17.6515C16.0251 18.2373 16.9749 18.2373 17.5607 17.6515C18.1464 17.0657 18.1464 16.1159 17.5607 15.5302L11.1213 9.09082L17.5607 2.65148Z" fill="#161616"/>
</svg>
