<svg width="56" height="56" viewBox="0 0 56 56" fill="none" xmlns="http://www.w3.org/2000/svg">
<path d="M44 0.5H12C5.64873 0.5 0.5 5.64873 0.5 12V44C0.5 50.3513 5.64873 55.5 12 55.5H44C50.3513 55.5 55.5 50.3513 55.5 44V12C55.5 5.64873 50.3513 0.5 44 0.5Z" stroke="#EF5C26"/>
<path d="M38 21.951C37.2483 22.277 36.4534 22.4926 35.64 22.591C36.4982 22.0783 37.1413 21.2717 37.45 20.321C36.6436 20.801 35.7608 21.1393 34.84 21.321C34.2246 20.6535 33.405 20.2092 32.5098 20.0578C31.6147 19.9064 30.6945 20.0563 29.8938 20.4841C29.093 20.912 28.4569 21.5935 28.0852 22.4218C27.7136 23.2501 27.6273 24.1783 27.84 25.061C26.2094 24.9785 24.6144 24.5539 23.1587 23.8148C21.7029 23.0757 20.4188 22.0386 19.39 20.771C19.0291 21.4011 18.8395 22.1148 18.84 22.841C18.8387 23.5153 19.0042 24.1796 19.3218 24.7745C19.6393 25.3695 20.099 25.8767 20.66 26.251C20.008 26.2332 19.3699 26.0583 18.8 25.741V25.791C18.8049 26.7358 19.136 27.65 19.7373 28.3789C20.3386 29.1078 21.1733 29.6066 22.1 29.791C21.7433 29.8995 21.3729 29.9568 21 29.961C20.7419 29.9579 20.4844 29.9345 20.23 29.891C20.4939 30.7038 21.0046 31.4141 21.6911 31.9231C22.3775 32.4321 23.2056 32.7145 24.06 32.731C22.6172 33.8662 20.8359 34.4858 19 34.491C18.6657 34.492 18.3317 34.472 18 34.431C19.8744 35.6412 22.0588 36.2837 24.29 36.281C25.8297 36.2969 27.3571 36.006 28.7831 35.425C30.2091 34.8441 31.505 33.9848 32.5952 32.8974C33.6854 31.8101 34.548 30.5163 35.1326 29.0919C35.7172 27.6674 36.012 26.1407 36 24.601C36 24.431 36 24.251 36 24.071C36.7847 23.4858 37.4615 22.7684 38 21.951Z" fill="white"/>
</svg>
