<svg width="518" height="400" viewBox="0 0 518 400" fill="none" xmlns="http://www.w3.org/2000/svg">
<g opacity="0.1">
<path d="M377.889 270.954C375.451 260.595 371.307 250.961 366.432 241.575C357.654 224.634 347.17 208.784 335.954 193.301C331.079 186.595 326.203 180.013 319.987 174.405C306.451 162.34 294.752 148.686 286 132.837C278.445 119.183 273.811 104.68 272.928 88.9477C272.196 73.3464 275.366 58.4772 281.954 44.2092C285.661 36.2356 290.327 28.7444 295.85 21.902C295.726 21.902 295.602 21.7843 295.36 21.4183C295.242 21.536 294.994 21.536 294.876 21.6602C283.294 30.0654 272.549 39.5817 263.301 50.5491C252.19 63.719 243.693 78.3464 238.922 94.9216C236.236 104.072 234.771 113.333 235.386 122.843C236.118 133.81 239.307 144.294 243.673 154.412C252.085 173.797 264.151 190.621 277.562 206.699C282.68 212.791 288.288 218.157 292.798 224.739C298.771 233.392 304.745 242.052 308.405 252.046C310.843 258.628 312.791 265.333 312.673 272.405C312.425 281.301 307.307 287.889 298.771 289.595C294.682 290.439 290.527 290.929 286.353 291.059C277.334 291.177 268.556 289.346 259.902 287.137C243.562 282.994 227.595 277.261 211.994 270.922C206.994 268.961 202.118 266.412 196.752 265.314C189.314 263.732 182 263.974 175.053 267.752C173.307 268.628 171.779 269.882 170.577 271.421C169.376 272.961 168.531 274.748 168.105 276.654C167.088 280.541 167.172 284.635 168.347 288.477C170.785 296.281 175.177 302.856 180.543 308.954C188.34 317.98 198.092 324.562 208.575 329.922C222.719 337.235 237.837 341.993 253.314 345.529C263.608 347.872 274.028 349.617 284.523 350.758C287.791 351.124 291.105 351.366 294.399 351.732C294.042 351.129 293.538 350.625 292.935 350.268C283.425 343.562 273.798 336.98 264.412 330.157C262.596 328.71 261.067 326.937 259.902 324.928C258.072 322 259.046 319.699 262.458 319.32C266.027 318.935 269.63 318.974 273.19 319.438C284.765 321.268 296.471 322.706 308.294 322.856C319.752 322.974 331.092 322.124 342.183 318.935C351.569 316.373 360.105 312.353 367.177 305.647C377.157 296.19 381.183 284.732 377.889 270.954Z" stroke="white" stroke-width="2" stroke-miterlimit="10"/>
<path d="M210.582 229.876C218.38 242.294 227.157 254.013 237.889 264.007C242.399 268.15 247.393 271.686 253.125 273.882C260.929 276.804 268.36 276.438 275.432 271.686C281.04 267.908 284.334 262.908 283.36 255.961C282.885 253.055 282.15 250.199 281.164 247.425C278.484 240.235 274.092 233.895 269.216 228.046C263.366 221.098 257.393 214.268 250.079 208.908C244.24 204.675 238.849 199.857 233.987 194.529C215.21 173.928 208.386 149.791 213.138 122.359C215.7 107.49 221.308 93.6013 228.746 80.5294C230.706 76.9934 233.013 73.5751 235.085 70.1634C234.976 70.062 234.891 69.9368 234.837 69.7974L234.471 70.1634C218.38 89.183 206.19 110.516 198.634 134.288C195.028 145.776 192.736 157.636 191.804 169.64C191.072 178.902 192.661 188.046 195.34 196.948C198.938 208.551 204.063 219.625 210.582 229.876V229.876Z" stroke="white" stroke-width="2" stroke-miterlimit="10"/>
<path d="M192.961 255.353C194.921 257.314 197.595 258.523 200.15 259.621C204.072 261.327 207.712 259.98 210.758 257.176C213.196 254.987 213.686 252.301 212.719 249.379C210.163 241.333 204.555 235.601 198.457 230.118C195.287 227.314 191.876 224.634 189.072 221.34C182.124 213.17 179.444 203.693 180.66 193.059C181.634 184.771 184.581 177.209 188.706 170.137C188.948 169.654 189.196 169.288 189.438 168.797C189.314 168.797 189.196 168.68 188.947 168.431C188.706 168.68 188.464 169.039 188.222 169.288C180.902 178.797 175.542 189.281 172.856 200.98C171.274 207.928 170.3 214.758 172.248 221.83C175.771 235.118 183.085 246.085 192.961 255.353Z" stroke="white" stroke-width="2" stroke-miterlimit="10"/>
</g>
</svg>
