<svg width="1042" height="384" viewBox="0 0 1042 384" fill="none" xmlns="http://www.w3.org/2000/svg">
<path d="M1129 0H0V760H1129V0Z" fill="black"/>
<path d="M584.968 282.225C582.834 284.872 581.027 287.768 579.589 290.85C577.037 296.252 575.839 302.194 576.1 308.163C576.457 314.136 578.184 319.947 581.147 325.145C584.592 331.214 589.042 336.654 594.309 341.232C596.618 343.452 598.69 345.906 600.493 348.554C604.882 354.476 608.824 360.716 612.287 367.222C614.227 370.812 615.716 374.627 616.721 378.582C617.364 380.991 617.315 383.533 616.578 385.916C615.841 388.298 614.447 390.424 612.555 392.049C609.811 394.539 606.485 396.296 602.882 397.161C598.609 398.299 594.193 398.807 589.772 398.668C585.216 398.571 580.672 398.144 576.177 397.391C574.798 397.224 573.403 397.224 572.024 397.391C570.746 397.531 570.337 398.426 571.04 399.563C571.492 400.34 572.08 401.028 572.778 401.594C576.42 404.227 580.138 406.782 583.818 409.376C584.055 409.511 584.252 409.705 584.393 409.938C583.115 409.798 581.838 409.708 580.56 409.568C576.499 409.12 572.468 408.442 568.485 407.536C562.494 406.242 556.693 404.189 551.222 401.428C547.108 399.457 543.418 396.701 540.361 393.314C538.246 391.038 536.639 388.337 535.646 385.392C535.188 383.906 535.157 382.321 535.556 380.818C535.721 380.08 536.047 379.388 536.511 378.792C536.975 378.195 537.565 377.709 538.24 377.368C540.828 376.036 543.817 375.704 546.635 376.435C548.648 376.984 550.611 377.707 552.5 378.594C558.528 381.11 564.723 383.206 571.04 384.868C574.367 385.819 577.803 386.331 581.262 386.389C582.882 386.336 584.494 386.144 586.08 385.814C587.623 385.536 589.015 384.711 590 383.491C590.986 382.271 591.499 380.737 591.446 379.17C591.397 376.461 590.838 373.787 589.798 371.286C588.251 367.518 586.224 363.966 583.767 360.718C582.016 358.163 579.844 356.093 577.864 353.742C572.548 347.657 568.133 340.841 564.754 333.502C562.99 329.645 561.905 325.512 561.546 321.286C561.361 317.63 561.824 313.971 562.914 310.476C564.801 304.147 568.016 298.292 572.344 293.303C575.955 289.102 580.056 285.349 584.559 282.122C584.559 282.122 584.713 282.122 584.751 282.033C584.879 282.173 584.917 282.225 584.968 282.225Z" fill="#EF5C26"/>
<path d="M561.444 300.905C560.639 302.183 559.745 303.55 558.991 304.918C556.052 309.918 554.007 315.392 552.947 321.094C551.949 326.055 552.161 331.184 553.565 336.046C554.968 340.908 557.522 345.36 561.01 349.027C562.897 351.084 564.986 352.946 567.246 354.585C569.997 356.753 572.481 359.241 574.644 361.996C576.602 364.215 578.166 366.751 579.269 369.497C579.655 370.567 579.941 371.671 580.126 372.793C580.29 374 580.084 375.228 579.537 376.316C578.99 377.404 578.126 378.301 577.059 378.888C575.809 379.75 574.36 380.28 572.849 380.428C571.338 380.575 569.814 380.336 568.421 379.732C566.232 378.839 564.233 377.538 562.531 375.898C558.446 371.975 554.893 367.533 551.963 362.686C549.433 358.71 547.448 354.412 546.06 349.908C544.951 346.501 544.488 342.918 544.693 339.341C545.055 334.698 545.942 330.112 547.338 325.669C550.265 316.559 554.978 308.123 561.202 300.854L561.342 300.714C561.36 300.785 561.395 300.851 561.444 300.905Z" fill="#F4941F"/>
<path d="M543.785 339.111C543.696 339.29 543.593 339.431 543.504 339.622C541.856 342.328 540.794 345.349 540.386 348.49C540.115 350.442 540.266 352.43 540.828 354.319C541.39 356.208 542.35 357.954 543.645 359.441C544.775 360.655 545.988 361.791 547.273 362.84C549.637 364.961 551.81 367.171 552.793 370.289C553.006 370.806 553.048 371.378 552.912 371.921C552.776 372.463 552.471 372.948 552.04 373.305C551.537 373.866 550.873 374.258 550.138 374.427C549.404 374.596 548.636 374.535 547.938 374.25C546.913 373.882 545.968 373.323 545.152 372.602C541.301 369.104 538.53 364.577 537.166 359.556C536.562 356.887 536.646 354.108 537.409 351.48C538.471 347.007 540.499 342.82 543.351 339.213C543.44 339.124 543.542 338.983 543.632 338.881C543.696 339.022 543.734 339.111 543.785 339.111Z" fill="#208703"/>
<path d="M587.836 378.543C574.782 371.567 562.283 365.154 549.507 358.458V398.515C562.951 391.206 577.122 384.513 587.891 378.543H587.836Z" fill="white"/>
<path d="M587.836 378.543C574.782 371.567 549.507 358.458 549.507 358.458L583.205 381.108C583.208 381.108 577.067 384.513 587.836 378.543Z" fill="#E8E0E0"/>
<path d="M551.963 429.87C524.849 429.371 515.589 428.922 509.896 427.749C506.045 426.97 502.699 425.24 500.245 422.731C498.348 420.831 496.84 417.934 495.67 413.914C494.666 410.564 494.275 407.778 493.718 400.971C492.865 385.609 492.662 373.049 493.718 359.016C494.59 351.266 495.012 342.066 500.802 336.699C503.536 334.187 506.716 332.57 510.287 331.902C515.866 330.843 539.633 330.006 564.237 330.006C588.786 330.006 612.606 330.843 618.189 331.902C622.651 332.74 626.835 335.249 629.291 338.484C634.574 346.794 634.666 357.127 635.202 365.21C635.424 369.061 635.424 390.929 635.202 394.78C634.368 407.553 633.697 412.073 631.8 416.758C630.628 419.717 629.626 421.278 627.894 423.008C625.176 425.67 621.712 427.441 617.962 428.085C594.499 429.849 574.575 430.232 551.963 429.87ZM587.893 378.543C574.839 371.567 562.341 365.099 549.564 358.403V398.462C563.009 391.153 577.182 384.457 587.948 378.488L587.893 378.543Z" fill="#CD201F"/>
</svg>
